<svg xmlns="http://www.w3.org/2000/svg" viewBox="0 0 301.26 267.51"><defs><style>.cls-1{fill:#221714;}.cls-2{fill:#fff;}</style></defs><g id="word"><path class="cls-1" d="M64.32,111.08c14.43-.28,23,18.25,18.62,32s-16.78,23.11-28.47,31.56l-31.93,23.1c15.64-16.09,44.95-11.51,59.56,5.52s16.52,42.06,11,63.79c19.16-48.21,78-74.21,125.22-71.24a18.7,18.7,0,0,1-13.06-28.1c6.78-10.94,20.49-15,33.09-17.61a399.06,399.06,0,0,1,62.44-7.36c-23.55-.72-43-12-43.92-33.43s17.39-37.57,34-50.35l-51,32.86c-6.81,4.39-15.56,8.87-22.5,4.69-4.75-2.85-6.6-8.71-7.81-14.11a171.23,171.23,0,0,1-2.13-63.25c-3.65,24.45-7.92,44.71-26.38,57s-42,15.21-64,12.17"/><path class="cls-1" d="M64.32,111.41c14.16,0,21.34,16.92,18.85,29.06-1.6,7.82-6.66,14.66-12.21,20.19-6.08,6.06-13.16,11-20.09,16L22.31,197.32l.56.72C34.5,186.22,53.22,186,67.51,192.8c16.53,7.89,25.4,25.06,27.42,42.7a87.68,87.68,0,0,1-2.35,31.4.5.5,0,0,0,1,.27c7.49-18.75,21.2-34.35,37.62-45.86a142.06,142.06,0,0,1,55.11-22.89,130.68,130.68,0,0,1,32-2.1c.58,0,.73-.94.14-1a18.38,18.38,0,0,1-15.07-14.71c-1.61-8.48,3.35-16,10-20.71,7.23-5.13,16.1-7.45,24.66-9.22,10.22-2.11,20.56-3.68,30.92-4.91,10.55-1.26,21.16-2.21,31.78-2.49a.53.53,0,0,0,0-1.06c-14.51-.48-31.11-5.12-39.11-18.3a32.29,32.29,0,0,1-3.83-22.25c1.48-8.4,5.93-15.91,11.37-22.36,6.37-7.56,14.07-13.9,21.88-19.92.49-.37.05-1.21-.5-.85l-28.5,18.37L247.92,86c-4.42,2.86-8.77,5.94-13.44,8.39-4.23,2.22-9.37,4.2-14.18,2.85s-7.37-5.45-8.88-9.82a88.87,88.87,0,0,1-3.21-14.35q-1.38-8.25-1.93-16.6a171.51,171.51,0,0,1,1.57-37.2l-.92-.25c-2.29,15.31-4.76,31.8-13.88,44.76-10,14.19-27.61,21.36-44.23,23.95a109.83,109.83,0,0,1-31.67.08c-.7-.09-1,1-.29,1.07,18.47,2.51,37.94,1,55-7,7.55-3.54,14.6-8.28,19.9-14.77A59.6,59.6,0,0,0,202,47.49c3-9.16,4.47-18.73,5.9-28.23.09-.6-.83-.86-.92-.25a172.13,172.13,0,0,0-1.81,34.25c.26,5.56.8,11.12,1.6,16.63a119.31,119.31,0,0,0,3.18,16c1.12,3.88,2.85,7.86,6.18,10.35,3.62,2.72,8.24,2.85,12.46,1.66,5-1.4,9.34-4.25,13.63-7l15.06-9.71q16.92-10.91,33.83-21.82l-.5-.85C276.93,69,261.5,81.64,257.3,99.21a34.33,34.33,0,0,0,2.2,22.89,34.09,34.09,0,0,0,14.8,14.71c8.09,4.34,17.34,6.14,26.45,6.44v-1.06a364.19,364.19,0,0,0-62.35,7.36c-9,1.83-18.32,4.23-25.84,9.68-6.5,4.71-11.4,11.87-10.43,20.19a19.41,19.41,0,0,0,16,16.88l.14-1c-19.7-1.22-39.7,2.44-58.05,9.56-18.86,7.32-36.52,18.53-50,33.73A97.23,97.23,0,0,0,92.58,266.9l1,.27c4.66-18.38,4.29-39.22-5.31-56A46.43,46.43,0,0,0,70,193a47.06,47.06,0,0,0-23.63-5.66,35.13,35.13,0,0,0-24.12,10c-.36.36.12,1,.55.72q13.5-9.75,27-19.52c7.34-5.31,14.89-10.48,21.39-16.84,5.74-5.61,11-12.57,12.76-20.55a28.66,28.66,0,0,0-2.77-19.44c-3.37-6.33-9.4-11.13-16.81-11a.33.33,0,0,0,0,.66Z"/><path class="cls-2" d="M128.59,59.06c26.07-9.39,63.18-30.95,65.95-58.62a171.23,171.23,0,0,0,2.13,63.25c1.21,5.4,2.89,11.58,7.81,14.11,10.65,5.5,54.45-25.75,73.48-37.55-17.57,13-34.94,29-34,50.35S264.35,123.31,287.9,124a399.06,399.06,0,0,0-62.44,7.36c-12.6,2.58-26.31,6.67-33.08,17.61a18.69,18.69,0,0,0,13.05,28.1c-47.18-3-106.06,23-125.22,71.24,5.56-21.73,3.65-46.77-11-63.79S20.34,171.6.48,182.5c10.64-7.7,30.5-18.87,41.14-26.57,11.69-8.45,24.06-17.82,28.47-31.56s-12.76-54-58.71-72.71C11.38,51.66,75.63,78.14,128.59,59.06Z"/><path class="cls-1" d="M128.68,59.38a158.26,158.26,0,0,0,33.53-16.5c10.22-6.67,20.1-14.82,26.62-25.28A40.56,40.56,0,0,0,195,.44c0-.5-.81-.62-.89-.12a172.82,172.82,0,0,0-.63,47.7c.89,7,1.93,14.19,4.1,20.9,1.27,3.92,3.72,8.87,8.18,9.81,2.64.56,5.51-.16,8-.91a72.3,72.3,0,0,0,10.86-4.47,286.57,286.57,0,0,0,27.07-15.63c8.87-5.62,17.57-11.52,26.5-17.06l-.49-.83c-14,10.34-29.53,23.18-33.41,41.06a34.67,34.67,0,0,0,2.52,22.84,34.3,34.3,0,0,0,14.76,14.44c8.06,4.27,17.26,6,26.31,6.34v-1a366.55,366.55,0,0,0-62.11,7.26c-9,1.81-18.38,4.19-26,9.62-6.55,4.69-11.52,11.9-10.56,20.25a19.42,19.42,0,0,0,16,16.92l.14-1c-19.71-1.2-39.72,2.43-58.1,9.54-18.82,7.29-36.43,18.48-49.9,33.62a97.17,97.17,0,0,0-17.72,28.46l1,.27c4.94-19.56,4.21-42.07-7.31-59.29a36.27,36.27,0,0,0-8.57-9.37,35.48,35.48,0,0,0-10.58-5.11c-8.48-2.56-17.64-2.63-26.36-1.45A80.25,80.25,0,0,0,.23,182.07l.5.86c12-8.65,25.09-15.67,37.35-23.93a161.32,161.32,0,0,0,17.76-13.58c5.69-5.11,10.8-11.07,13.74-18.21A20.58,20.58,0,0,0,71.14,117a45.12,45.12,0,0,0-2.78-11.44A84.37,84.37,0,0,0,51.14,78.36,108.39,108.39,0,0,0,16.69,53.45c-1.71-.8-3.44-1.54-5.18-2.25-.58-.24-.83.7-.26.93A181.22,181.22,0,0,0,36.38,60c18.5,4.63,37.72,7.22,56.81,6.3a123,123,0,0,0,35.54-6.72c.67-.24.38-1.31-.29-1.07-20,7.15-41.69,8.11-62.66,5.81A222.85,222.85,0,0,1,19.86,54.21c-2.8-.93-5.61-1.89-8.35-3l-.26.93a109.8,109.8,0,0,1,35.94,23.5,88,88,0,0,1,19,27.16,51.7,51.7,0,0,1,3.64,11.78,21.88,21.88,0,0,1,0,9c-1.79,6.91-6.48,13.06-11.42,18a133.4,133.4,0,0,1-18,14.57C28.65,164.5,16,171.39,4,179.43Q2.1,180.72.23,182.07a.5.5,0,0,0,.5.86,78.78,78.78,0,0,1,23.8-8.14c8.53-1.53,17.48-1.88,26,0,8.16,1.78,15.16,5.73,20.24,12.43a59.26,59.26,0,0,1,10.95,27,86,86,0,0,1-2,34.06.52.52,0,0,0,1,.27c7.5-18.74,21.23-34.34,37.66-45.85a142.4,142.4,0,0,1,55.11-22.91,129.68,129.68,0,0,1,32-2.11c.57,0,.71-.9.14-1a18.39,18.39,0,0,1-15.07-14.73c-1.61-8.54,3.44-16,10.19-20.78,7.26-5.09,16.13-7.41,24.7-9.18,10.22-2.11,20.56-3.68,30.92-4.93s21-2.2,31.59-2.48a.48.48,0,0,0,0-1c-14.43-.48-30.92-5.08-39-18.11a32.57,32.57,0,0,1-4.11-21.81c1.25-8.49,5.52-16.17,10.93-22.72,6.43-7.8,14.37-14.25,22.47-20.25.48-.36.05-1.17-.49-.83-16.1,10-31.57,21.06-48.31,30a112.15,112.15,0,0,1-11.82,5.63A30.85,30.85,0,0,1,208.41,78c-3.93.24-6.7-2.24-8.48-5.66A34.91,34.91,0,0,1,197.2,64c-.84-3.69-1.55-7.42-2.13-11.16A171.29,171.29,0,0,1,195,.56l-.89-.12C192.87,12,185.75,22,177.55,29.79c-9,8.65-19.8,15.45-30.93,21.06a171.1,171.1,0,0,1-18.12,7.89C128.1,58.89,128.27,59.53,128.68,59.38Z"/><path d="M118.45,143.9l-5,22H85.53l5.12-22Zm17.76-66.25-11.49,49.84-10.66,11.29H91.17l14.11-61.13Z"/><path d="M164.42,143.9l-5,22H131.5l5.12-22Zm17.76-66.25-11.49,49.84L160,138.78H137.15l14.1-61.13Z"/><path class="cls-1" d="M20.92,68.57A49,49,0,0,1,43.91,89a51.44,51.44,0,0,1,3.75,8c.27.74,1.46.44,1.2-.33A47.82,47.82,0,0,0,29.09,72.13a49.52,49.52,0,0,0-8-4.07c-.33-.13-.46.38-.15.51Z"/><path class="cls-1" d="M144.91,223.7A316,316,0,0,1,231.62,209q12.34-.36,24.7.28c.64,0,.64-1,0-1a321.78,321.78,0,0,0-44.13,1,315.82,315.82,0,0,0-43.43,7.12q-12.13,2.87-24,6.68c-.38.12-.22.72.17.6Z"/></g></svg>