<svg xmlns="http://www.w3.org/2000/svg" viewBox="0 0 679.07 198.44"><defs><style>.cls-1{fill:#fff;}.cls-2{fill:#ea5539;}.cls-3{fill:#1a1a1a;}</style></defs><g id="上層字"><path d="M65.58,25.16,28.85,184.65H6.29L43.22,25.16ZM88.13,125.37,72.56,192.84H31L73.76,8.39h41.52L101.71,67.28l4.59,5.19-12.18,52.9Zm99.81,2.19-4.39,19h3.59l5.79-8.79H206.1l-12.57,54.7H130.65l14.77-64.88h-3.19l-19.56,64.88H77.15l5.39-23.76,20.16-41.12H97.51l14.18-60.68h-6l7.58-32.94L139.63,7.2H171l-8.18,35.13-7,7h24.35l-4-7h-8L176.36,7.2h35.33l18.17,26.74-7.59,32.94h-7.18l-14.18,60.68ZM169.38,81.05h-19L147,96h19Z"/><path d="M295.12,137.34,282.55,192H224.66l5-21.16,10.18-5.59,3.79-16.77h-9.38L245.82,98,256,95.62l5.59-25H253.8L265,22.77h7.79L276.16,8h48.9l-3.39,14.78h6.59l-11.18,47.9h-6.59L307.3,84.85h6.59l-11.58,50.7ZM357,163.89,340.63,192h-51.3l3-12.78,16.17-24.35h-5.39l10-42.72h11l2.19-10h-9.38l8.78-37.53H335l2.2-9.18h-11l9-38.32H346L348.62,6.4h44.71Zm75.06-100.2-2.6,10.78h9l-10.18,43.71h-8.79L416.69,130h10.38l-10.38,45.11H406.31l-4.19,18.37H356.21l43.11-187h45.91l-2.39,10.78h10L442.24,63.69Z"/><path d="M626.07,66.28l-1,4.19h29.35l-3.2,13.58H621.88l-1,4.19h30.94L648,105H633.86l14.57,8.78-6.19,26.75h-6.39l-7.38,32.53h-9.18l12.77,9.79-2,9H552l-4.8-12.18h-12l-9.18,12.18H444.42l2.2-9,17.17-9.79H455l7.59-32.53H455.2l6.19-26.75L480,105H466.38l3.79-16.77h29.95l1-4.19H473l3.19-13.58h28.15l1-4.19H478.56l2-9.18H474l10.38-44.51h59.08L545.23,5h61.48l-1.8,7.59h67.87L662.6,56.7h-6.19l-2.19,9.58Zm-116.37,95h66.87l1-4.39H510.7Zm71.46-19.37H514.09l-1,4.4H580ZM516.48,44.52l-1.19,4.79h9l1-4.79Zm1,82.44-1,4.4h67.07l1-4.4ZM564.39,105H555l-7.59,4.19H570Zm8.79-21H550.62l-1,4.19h22.56Zm4.19-17.77H554.81l-1,4.19h22.56Zm-2.2-17,1.2-4.79H565.79l-1,4.79Zm50.7-4.79h-9.38l-1.2,4.79h9.38Z"/><path class="cls-1" d="M76.54,197.84H24.75l1.9-8.19H0L39.24,20.16H65.9L69.79,3.39h51.77L117,23l20.5-20.8h76.8l20.88,30.74-9,38.94h-7.2l-14.17,60.68h-13l0,.18h20.51l-14.87,64.7H76.63Zm-39.21-10H68.58l15.57-67.47h6l10.71-46.52-4.59-5.19L109,13.39H77.73Zm99.59-.4h52.63l10.27-44.7h-4.2l-5.79,8.79H177.26l6.7-29h13l14.17-60.68h7.17L224.5,35,209,12.2H180.33l-5.85,25.13h4.58l9.71,17h-45L158.24,39.8l6.43-27.6H141.73L117.84,36.44,112,61.88h6l-14.17,60.68h6.9l-23.43,47.8-3.88,17.08H119l19.56-64.88h13.18ZM12.58,179.65H24.87L59.29,30.16H47.19Zm79-47.09-2.74,11.87,5.82-11.87ZM170,101H140.76l5.66-25h29.22Zm-16.7-10H162l1.13-5h-8.71Z"/><path class="cls-1" d="M406.1,198.44H349.92l4.74-20.58L343.51,197H218.34l6.95-29.47L235.45,162l1.91-8.47H228l13.68-59.65,10.16-2.4,3.54-15.8H247.5L261,17.77h7.77L272.18,3h59.16L328,17.77h2l1.31-5.59h10.81L344.68,1.4H451.47l-2.4,10.78h10L446.23,68.69H436l-.19.78h8.93l-12.51,53.71h-8.8L423,125h10.34l-12.68,55.11H410.3Zm-43.61-10h35.64l4.19-18.37h10.39L420.79,135H410.36l5.17-21.78h8.77l7.85-33.71h-9l5-20.78h10.13l8.3-36.51H436.6L439,11.4H403.3ZM295.64,187h42.12l14.54-25L387.05,11.4H352.56L350,22.18H339.21L332.57,50.5h11L339,69.68h-9.36l-6.44,27.53h9.29l-4.4,20h-11l-7.64,32.72h8.41L297,181.28ZM231,187h47.59l12.38-53.8,7.18-1.8,9.49-41.59h-6.56l5.44-24.18h6.62L322,27.77h-6.57L318.79,13H280.14l-3.39,14.78H269l-8.85,37.9h7.73l-7.64,34.1-10.2,2.4-9.47,41.35h9.36l-5.67,25.07L234,174.19Zm68.34-45.59-6.42,27.93,6.29-9.47H296.8L301.23,141Zm14.24-61.6H317l1-4.18h-3.47Z"/><path class="cls-1" d="M634.08,196.84H548.61l-4.79-12.18h-6.08l-9.18,12.18h-90.5l4.21-17.26,7-4,7-30h-7.38l8.16-35.24,3.34-1.58,5.77-25.48H468l4.18-17.77h1.42l.73-3.37h-6.68L480.38,7.59h59.1L541.27,0H613l-1.79,7.59h67.83L666.58,61.7H660.4l-.87,3.77h1.2l-4.18,17.77h1.53L652,110h-.19l2.28,1.37-7.9,34.16h-6.37L632.69,177l4.94,3.79Zm-78.66-10h70.63l.44-2-22-16.81h20l7.38-32.54h6.41l4.47-19.34L615.87,100H644l1.53-6.77h-31l3.38-14.19h29.33l.84-3.58H618.74l3.38-14.19h28.11l2.2-9.58h6.19l7.88-34.11H598.59l1.8-7.59H549.18l-1.79,7.59H488.31l-8,34.51h6.49l-2,9.18h26.87l-3.37,14.19H480.12l-.84,3.58h28.16l-3.38,14.19H474.17L472.64,100H480l2.14,9.52-16.37,7.74-4.23,18.27h7.4l-7.59,32.54h21.36l-31.7,18-.17.71h72.78l9.19-12.18h17.87Zm25.14-20.54H503.43l3.27-14.39h77.13Zm3.22-15H506.83l3.27-14.39h77.6Zm3.76-15H510.22l3.27-14.4h77.33ZM585,114.2H547.42L545,104.82l8.71-4.81h12.34Zm-8.85-21H543.29l3.38-14.19h32.84Zm4.19-17.77H547.48l3.38-14.19H583.7Zm48.26-21.16H608.89l3.7-14.79h19.69Zm-49.51,0H558.64l3.08-14.79h21Zm-50.74,0H508.88l3.7-14.79h18.84Z"/><path d="M65.58,25.16,28.85,184.65H6.29L43.22,25.16ZM88.13,125.37,72.56,192.84H31L73.76,8.39h41.52L101.71,67.28l4.59,5.19-12.18,52.9Zm99.81,2.19-4.39,19h3.59l5.79-8.79H206.1l-12.57,54.7H130.65l14.77-64.88h-3.19l-19.56,64.88H77.15l5.39-23.76,20.16-41.12H97.51l14.18-60.68h-6l7.58-32.94L139.63,7.2H171l-8.18,35.13-7,7h24.35l-4-7h-8L176.36,7.2h35.33l18.17,26.74-7.59,32.94h-7.18l-14.18,60.68ZM169.38,81.05h-19L147,96h19Z"/><path d="M295.12,137.34,282.55,192H224.66l5-21.16,10.18-5.59,3.79-16.77h-9.38L245.82,98,256,95.62l5.59-25H253.8L265,22.77h7.79L276.16,8h48.9l-3.39,14.78h6.59l-11.18,47.9h-6.59L307.3,84.85h6.59l-11.58,50.7ZM357,163.89,340.63,192h-51.3l3-12.78,16.17-24.35h-5.39l10-42.72h11l2.19-10h-9.38l8.78-37.53H335l2.2-9.18h-11l9-38.32H346L348.62,6.4h44.71Zm75.06-100.2-2.6,10.78h9l-10.18,43.71h-8.79L416.69,130h10.38l-10.38,45.11H406.31l-4.19,18.37H356.21l43.11-187h45.91l-2.39,10.78h10L442.24,63.69Z"/><path d="M626.07,66.28l-1,4.19h29.35l-3.2,13.58H621.88l-1,4.19h30.94L648,105H633.86l14.57,8.78-6.19,26.75h-6.39l-7.38,32.53h-9.18l12.77,9.79-2,9H552l-4.8-12.18h-12l-9.18,12.18H444.42l2.2-9,17.17-9.79H455l7.59-32.53H455.2l6.19-26.75L480,105H466.38l3.79-16.77h29.95l1-4.19H473l3.19-13.58h28.15l1-4.19H478.56l2-9.18H474l10.38-44.51h59.08L545.23,5h61.48l-1.8,7.59h67.87L662.6,56.7h-6.19l-2.19,9.58Zm-116.37,95h66.87l1-4.39H510.7Zm71.46-19.37H514.09l-1,4.4H580ZM516.48,44.52l-1.19,4.79h9l1-4.79Zm1,82.44-1,4.4h67.07l1-4.4ZM564.39,105H555l-7.59,4.19H570Zm8.79-21H550.62l-1,4.19h22.56Zm4.19-17.77H554.81l-1,4.19h22.56Zm-2.2-17,1.2-4.79H565.79l-1,4.79Zm50.7-4.79h-9.38l-1.2,4.79h9.38Z"/><ellipse class="cls-2" cx="133.53" cy="87.04" rx="31.24" ry="30.45"/><path class="cls-3" d="M165,87a33.49,33.49,0,0,0-.41-4.69l-.1-1.13a23.7,23.7,0,0,0-.7-3c-.32-1-.77-2-1.18-3-.43-.89-.89-1.75-1.34-2.61a31.26,31.26,0,0,0-11.62-11.85,11.8,11.8,0,0,0-1.88-1.17,20.08,20.08,0,0,0-2.76-1.1c-5.36-1.87-10.38-2.82-15.8-2a33.18,33.18,0,0,0-9.14,2.8l-1.61.77-1.55.92a28.8,28.8,0,0,0-3,2c-1,.73-1.83,1.58-2.74,2.37A32.37,32.37,0,0,0,106.68,71l-.76,1.17c-.25.38-.44.8-.65,1.19a20.24,20.24,0,0,0-1,2.11q-.41,1.08-.78,2.13c-.23.7-.37,1.42-.55,2.12l-.26,1-.16,1-.32,2.05-.09,1.33c0,.48-.1,1.09-.15,1.72s0,1.26,0,1.78a15,15,0,0,0,.26,2.22c.1.64.19,1.26.28,1.86a14.61,14.61,0,0,0,.35,1.75,13.7,13.7,0,0,0,.64,2.21,2.21,2.21,0,0,1,.27.41l.13.34c.21.61.38,1.31.62,1.87l.47.8a14.11,14.11,0,0,0,1.25,2.55c.28.45.56.9.84,1.32a11,11,0,0,0,.92,1.13l.94,1.24a18.05,18.05,0,0,0,1.32,1.39,16.35,16.35,0,0,0,1.29,1.21l.38.33,1.56,1.46c.51.41,1,.8,1.39,1.21l.67.41a26.82,26.82,0,0,0,2.71,1.66,17,17,0,0,0,2.57,1l.12.06c.41.22.82.33,1.22.5a21.72,21.72,0,0,0,2.09.84c.69.19,1.38.35,2.11.5a15.37,15.37,0,0,0,2.28.43,33.1,33.1,0,0,0,11.71-.41l1.06-.27,1.31-.29c.44-.12.86-.29,1.3-.44s1-.37,1.45-.54c1.12-.46,2.22-1,3.28-1.53l1.5-.92a9.4,9.4,0,0,0,1.4-1l.1-.06,1.55-1.09c.06,0,0,0,.09,0,.48-.38.93-.84,1.41-1.27a16.55,16.55,0,0,0,1.43-1.35c.12-.11,0,0,.05,0,.81-1,1.29-1.41,1.24-1.15.1-.14.31-.37.5-.62l.46-.68a14.62,14.62,0,0,0,2.14-2.92,26.57,26.57,0,0,0,1.92-3.83,27.73,27.73,0,0,0,1.57-4.37c.17-.67.35-1.23.44-1.73l.17-1.22c.08-.65.09-1,0-1.06a14,14,0,0,0,.16-1.83l.09-1.85h-.15V87l0,.07h-.28v.24s0,0-.05,0c-.06,1.06-.07,2-.14,3s-.27,1.8-.41,2.71L163,96.16l-.61,1.62a12.14,12.14,0,0,1-.67,1.63c-.33.65-.66,1.32-1,2.07a33.6,33.6,0,0,1-5.25,6.85l-1.81,1.57c-.59.57-1.3,1-1.86,1.45l-.39.32a31.47,31.47,0,0,1-7.43,3.82,13.6,13.6,0,0,1-1.74.57l-.52.1-1.67.3c-.53.11-1,.13-1.59.21l-1.73.23-2.16.11a30.78,30.78,0,0,1-11.32-1.73,34.64,34.64,0,0,1-9.89-5.47l-1.63-1.34c-.5-.47-1-1-1.45-1.45a30,30,0,0,1-6.11-10.26c-.22-.58-.36-1.2-.56-1.86a3.77,3.77,0,0,0-.15-1.28c-.19-.69-.23-1.64-.41-2.63s-.17-2-.26-3a18.78,18.78,0,0,1,0-2.33c0-.1,0,0,0-.07a19.3,19.3,0,0,1,.15-2.2c.13-.83.24-1.74.41-2.61s.46-1.7.65-2.42a14.8,14.8,0,0,1,.63-1.65l.38-1.22c.12-.41.32-.78.43-1.1a22.49,22.49,0,0,1,1.42-2.65c.62-.77,1-1.32,1.83-2.21a9.06,9.06,0,0,1,1.3-2A27.15,27.15,0,0,1,112,65.34l1.06-.92a11.77,11.77,0,0,1,1.32-1.06c.07,0,.12,0,.12,0,.83-.54,1.52-1.18,2.4-1.65l-.12.1a25,25,0,0,0,2.56-1.62l.78-.37c1.4-.64,2.54-.86,4.14-1.44l2.66-.72c.91-.24,1.85-.35,2.75-.51a8.5,8.5,0,0,1,1.37-.16l1.07-.09a32.2,32.2,0,0,1,4.39.08c.72.06,1.45.2,2.17.3l1.09.16,1.06.27a32.67,32.67,0,0,1,8.75,3.59l1.19.7,1.2.87,1.19.85,1,.81.05,0a30.46,30.46,0,0,1,7.62,10.13A29.56,29.56,0,0,1,164.57,87Zm-8,20.43a15.44,15.44,0,0,0,1.4-1.63l0,0c-.23.29-.45.59-.69.86Zm4.43-6.08h0l.09-.17Z"/><path d="M113,64.16a47.19,47.19,0,0,1-1.92,18.07c-1.81,5.47-5.77,10-7.24,15.57a.27.27,0,0,0,.52.14c.9-3.31,2.86-6,4.44-9A41.38,41.38,0,0,0,112,81.11a39.14,39.14,0,0,0,1.34-17c0-.17-.32-.13-.31,0Z"/><path d="M136.89,56.26c-11.29,3.32-18.51,14-20.8,25.07-2.33,11.29-1.37,25.52,6.19,34.77.18.23.58-.07.4-.31-7.07-9.52-8.42-22.48-6.2-33.91s9.3-21.34,20.49-25.34c.17-.06.1-.34-.08-.28Z"/><path d="M158.7,67.76c-6.77-1.57-15.26-1.94-21.7,1.12a18.32,18.32,0,0,0-10.23,13.3C124.27,97.33,139,106,149.43,113.46c.3.21.58-.28.29-.5-9.95-7.1-23.85-14.9-22.67-29.17a17.79,17.79,0,0,1,9.86-14.33c6.48-3.24,14.81-2.63,21.72-1.43.17,0,.25-.23.07-.27Z"/><path d="M103.32,79.45c11.11-3.17,22.24-1.25,33.08,2,9.57,2.92,19.87,5.88,27.46,12.72.3.27.75-.17.45-.45-7.66-6.9-18.09-9.9-27.75-12.83-10.67-3.24-22.47-5.56-33.34-1.82a.17.17,0,0,0,.1.33Z"/><path d="M107.65,97.17a3.65,3.65,0,0,0,.42,3.1.13.13,0,0,0,.23-.13,3.84,3.84,0,0,1-.36-2.89.15.15,0,0,0-.29-.08Z"/><path d="M108.86,97.35a1.2,1.2,0,0,0,0,1.25.12.12,0,0,0,.22-.1,1.19,1.19,0,0,1,.06-1c.09-.15-.15-.29-.24-.14Z"/><path d="M110.57,103.82c.14.2.28.39.43.58s.29,0,.21-.16-.25-.38-.38-.56-.36,0-.26.14Z"/><path d="M137.71,115a7,7,0,0,0,2.58.16c.17,0,.12-.28,0-.28a10.61,10.61,0,0,1-2.45-.18c-.2,0-.28.26-.09.3Z"/><path d="M138.77,113.86c.46-.19.92-.37,1.37-.59.16-.07.05-.33-.11-.27-.46.16-.9.36-1.35.55-.19.08-.11.39.09.31Z"/><path d="M154.7,94a6.64,6.64,0,0,0-.17,2.51c0,.16.28.12.28,0a10.7,10.7,0,0,1,.18-2.39.15.15,0,0,0-.29-.08Z"/><path d="M156.09,94.75a9.43,9.43,0,0,0-.55,1.51.12.12,0,0,0,.21.09,11.79,11.79,0,0,0,.64-1.51c.07-.19-.23-.27-.3-.09Z"/><path d="M157.27,96.57c-.13.12-.26.25-.38.38s.06.3.19.19.27-.23.4-.36-.07-.33-.21-.21Z"/></g></svg>