<svg xmlns="http://www.w3.org/2000/svg" xmlns:xlink="http://www.w3.org/1999/xlink" viewBox="0 0 869.18 275.88"><defs><style>.cls-1{fill:none;}.cls-2{fill:#fff;}.cls-3{clip-path:url(#clip-path);}.cls-4{fill:#221714;}.cls-5{fill:#392f2c;}</style><clipPath id="clip-path"><rect class="cls-1" x="20.66" y="1.07" width="847.18" height="247.96"/></clipPath></defs><g id="插圖"><rect y="27.93" width="847.18" height="247.96"/><rect class="cls-2" x="20.66" y="1.07" width="847.18" height="247.96"/><path d="M868.18,248.4v-.05c.79-5.7.6-11.4.62-17.09s.31-15.34.37-21l-.58-33.63.31-64.75c-.47-11.4-.39-22.8-.39-34.2l-.39-34.37,0-42.46H841.65L748.91,1l-2-.09L740.51,1l.55-.13-87,.05c-.35,0-.67.09-1.08.09-3.51,0-7.05-.06-10.58-.08h-3.2c-1.38,0-2.75.05-4.12.13a12.67,12.67,0,0,1-2.54-.13L604,1.35c-8.7.11-30-.93-38.74-1.35l-121,.07a11.79,11.79,0,0,1-1.95.18c-7.45.1-14.9.19-22.32-.11a4.63,4.63,0,0,1-.55-.06H401.19a5,5,0,0,1-.57.05c-9.65.18-19.54.9-29,0L219.12.2c-2.05,0-4.1.09-6.14.2A12.05,12.05,0,0,1,210,.2L20.26.31H19.9L20,249.64H46c45.59-.07,91.18.07,136.78-.34,22.79.21,45.59.21,68.39.6,22.79.75,45.59.37,68.39.37l57.41-.15a13.84,13.84,0,0,1,2.44,0c2.87,0,7.42-.12,10.29-.19,1.13,0,.11,0,.8.17L407,250c2.52-.1,5-.21,7.56-.24a10.9,10.9,0,0,1,2.25.2h.89l128-.33c.14,0,.24,0,.38,0,7.34-.16,14.68-.29,22-.16a12.6,12.6,0,0,1,1.64.15c54.88-.12,109.58.15,164.46.1a11.48,11.48,0,0,1,2-.16h3.74a12.09,12.09,0,0,1,2,.15l12.8-.11c3-.08,6.08-.19,9.14-.2a10.38,10.38,0,0,1,2.18.2c19.22.2,37.31-.24,56.74-.23l1.32.14c1.12,0,1.86.1,3,.09a20.42,20.42,0,0,1,2.28-.07h23.26l10,0c2.58,0,4.2-.05,4.31-.1l.86-.38c.33,0,0-.54,0-.66s-.39-.33-.73-.33l-41.08.2.09,0-27.53.07a20.24,20.24,0,0,1-3.62.05c-2.65,0-4.24.25-6.72.23-.41,0-3.05-.12-3.41-.15-142.87,0-284.61,0-427.47-.27-.83.15,1,.23-.11.16-.75-.05-3.42-.09-4.16-.15l-33.36-.06-149.47.16H21.47L21.58,2h.07L135.91,2a10.14,10.14,0,0,1,2.45-.28L156,1.86a11.07,11.07,0,0,1,2.07.18l99.35,0a10.82,10.82,0,0,1,2.25-.22c11.58,0,22.79,0,33.92.24l175.18.07a11.6,11.6,0,0,1,2.67,0c.21,0,3.64-.11,3.86-.09L568,2.22l273.56.11,25,0-.06,109.22.32,68.13v34.19c0,5.7-.08,11.19.21,16.89l-.11,9a79.26,79.26,0,0,0,.61,8.55,1.18,1.18,0,0,0,.2.61C867.91,249.15,868.11,248.9,868.18,248.4Z"/><g class="cls-3"><path class="cls-4" d="M22.05-55.16c3.41,1.54,5.65,2.54,7.92,3.58,5.14,2.34,10.24,4.73,15.23,7.15,6.47,3.14,13.14,6.28,19.85,9.42l16.43,7.7C87-24.75,92.41-22.24,97.9-19.75c6.31,2.87,12.72,5.82,19.08,8.76,4,1.88,8.18,3.83,12.11,5.72,6.8,3.28,13.7,6.48,20.58,9.7l8.51,4c4.47,2.07,8.8,4.12,13,6.2,4,2,8.32,4,12.59,5.94,3.36,1.54,6.76,3.12,10.05,4.6,7.94,3.56,15.86,7.3,23.77,11,2.88,1.34,5.66,2.63,8.38,3.83,6.4,2.8,13,5.93,19.51,8.94.25.12.51.27,1,.53a28.67,28.67,0,0,1-3.74-1.51c-1.23-.56-2.48-1.15-3.72-1.73-3.73-1.74-7.42-3.44-11-5-4.7-2.08-9.5-4.35-14.26-6.57-2.8-1.31-5.59-2.64-8.39-4l-1.58-.73c-4.44-2-9.13-4.16-13.5-6.07-.82-.36-1.82-.8-2.58-1.17-3.14-1.52-6.34-2.95-9.48-4.43-.53-.25-1.13-.55-1.58-.74C173.12,16,170,14.42,167,12.89c-2.81-1.39-5.69-2.76-8.75-4.18Q152.36,6,146.53,3.27c-5.11-2.39-10.25-4.72-15.34-7.15l-10.5-5C116.27-11,111.83-13,107.47-15c-5.26-2.36-10.56-4.81-15.86-7.25q-8.48-3.9-17-7.84c-3.34-1.55-6.68-3.15-10-4.72-4.76-2.22-9.4-4.46-14.22-6.69-2.25-1-4.59-2.15-6.79-3.22-4.08-2-8.1-3.93-12.13-5.9-2.19-1.06-4.35-2.12-6.73-3.19C24.2-54.07,23.55-54.41,22.05-55.16Z"/><path class="cls-4" d="M326.48-84.59l3.84,5.94c2.47,3.88,4.89,7.78,7.21,11.66,3,5,6.15,10.13,9.34,15.26l7.79,12.55c2.6,4.19,5.21,8.32,7.86,12.45,3,4.76,6.11,9.61,9.15,14.45C373.59-9.21,375.55-6,377.38-3c3.17,5.27,6.46,10.51,9.73,15.77,1.35,2.16,2.7,4.33,4.05,6.48,2.13,3.4,4.17,6.73,6.11,10s3.89,6.42,5.94,9.65c1.61,2.55,3.24,5.13,4.83,7.6,3.85,5.95,7.59,12,11.34,18.06,1.37,2.21,2.7,4.32,4,6.34,3.14,4.74,6.24,9.8,9.35,14.75.13.2.24.42.46.82a18.58,18.58,0,0,1-1.92-2.67c-.59-.93-1.19-1.89-1.78-2.84-1.76-2.84-3.53-5.64-5.3-8.33-2.3-3.5-4.57-7.18-6.83-10.81-1.33-2.14-2.64-4.29-4-6.44-.25-.4-.51-.83-.75-1.2-2.17-3.31-4.4-6.88-6.55-10.12-.41-.6-.9-1.35-1.25-1.93-1.46-2.44-3-4.83-4.5-7.25-.25-.4-.53-.87-.75-1.2-1.74-2.6-3.15-5-4.55-7.45-1.29-2.2-2.64-4.42-4.1-6.75q-2.79-4.44-5.56-8.9c-2.42-3.9-4.91-7.77-7.29-11.69-1.63-2.69-3.3-5.39-4.94-8.08-2.07-3.4-4.18-6.79-6.3-10.06-2.55-3.94-5.08-8-7.62-12q-4-6.42-8.1-12.88c-1.59-2.54-3.16-5.12-4.75-7.68-2.26-3.63-4.41-7.23-6.72-10.89-1.08-1.7-2.17-3.5-3.2-5.21-1.89-3.17-3.76-6.3-5.62-9.44-1-1.71-2-3.39-3.17-5.18C327.46-82.89,327.17-83.41,326.48-84.59Z"/><path class="cls-4" d="M147.45,31.68c-.46-.17-1.2-.46-1.65-.65-3.73-1.56-7.91-3.13-11.92-4.66-3.14-1.19-6.13-2.34-9.18-3.56-2-.79-4.33-1.7-6.31-2.43s-3.51-1.31-5.12-2c-4.85-2-10.13-3.88-14.94-5.84-.64-.25-1.51-.56-2.28-.85-3.84-1.43-7.61-2.82-11.48-4.39-1.44-.59-3.52-1.36-5.1-1.92-8.39-3-11.62-4.21-19.56-7.33C59-2.27,58-2.62,57-3,54.34-4,51.78-4.88,49-6c-.38-.15-1.19-.44-1.52-.54C45.36-7.2,42.53-8.29,40-9.3c-2.21-.87-4.12-1.58-6.25-2.37s-4.16-1.62-5.81-2.13c-2.16-.84-3.67-1.34-5.23-1.85-.65-.21-1.79-.65-2.73-1s-2.14-.83-2.8-1.05c-2.58-.87-5.11-1.88-7.83-2.95-3.44-1.34-7-2.7-10.45-4-3.95-1.5-6.24-2.25-5.66-1.78s-.84,0-3.37-.77l-1.76-.56c.47.25,1.19.59,1.32.71.32.3-.35.2-2.5-.47-3.33-1.05-2.92-.56.61,1C-10-25.44-7.11-24.22-4.39-23c.9.39,2.16.9,2.66,1.15,1.8.91,5.87,2.47,8.29,3.55,2.8,1.05,4.93,2,7.85,3.1,3.49,1.29,6.47,2.49,8.46,3.4,1.82.68,3.18,1.16,4.44,1.65,5,1.94,9.58,3.66,13.39,4.9,1.54.62,2.75,1.13,4,1.64.88.35,2.11.83,2.79,1.06,3.9,1.33,8,3,12.35,4.63L59,2a66,66,0,0,0,6.49,2C71.69,6.34,77.73,8.56,84,11c2,.79,4.19,1.56,5.83,2.07l2.47.81C93.76,14.48,95,15,96,15.35c2.77,1,5.71,2.19,8.39,3.11,1.85.64,3.93,1.39,6.19,2.27,1.9.74,3.86,1.49,5.77,2.21,7.89,3,15.77,5.91,23.7,9,.76.3,1.65.63,2.28.85,1.12.38,2.17.79,3.36,1.25,5.23,2,10.17,4,15.52,6,3.35,1.38,7.35,2.84,10.56,4.2.65.28,1.88.72,2.82,1.09,3.51,1.36,6.86,2.52,10.38,3.91.48.19,1.19.44,1.58.56,1.48.48,3.23,1.16,5,1.83s3.58,1.38,5.24,2c1.95.71,3.69,1.35,5.6,2.14,1.13.47,2.24.86,3.12,1.13.47.14,1.18.39,2.44.81,1.53.8,4.29,1.92,7.55,3.17.79.31,1.51.65,2.31,1,1.81.64,4.06,1.51,5,1.74,1.18.28,2.34.55,3.32.75s1.83.28,3.1.57c.84.19,1,.15-.06-.38-.14-.07.11,0,.22,0l3,.94c-.14-.45-.79-.76-3-2a49.87,49.87,0,0,0-5.26-2.3l-7.55-3.05c-3.13-1.1-6.85-2.48-10.78-4-1.31-.51-2.77-1.06-4.07-1.54-2-.72-3.85-1.43-5.71-2.19-1.35-.55-2.64-1-3.85-1.45l-2-.66c-1.59-.67-2.36-1-4.39-1.78-4.39-1.59-8.72-3.25-13-5-2.15-.89-4.85-1.93-7.33-2.9-1.33-.52-3-1.12-4-1.54-2.47-1-4.4-1.72-6.9-2.55C152.39,33.54,150.14,32.63,147.45,31.68ZM3.07-22.46c1.49.56,3,1.11,4.52,1.69.61.23,1.55.63,1.73.73s-.15.05-.62-.11C6.1-21,4-21.67.48-23-.2-23.41,1.24-23,3.07-22.46Z"/><path class="cls-4" d="M-12.26.32l2.22.94L1.21,5.05c.61.2,1.08.42,1.71.66L-1.92,4.52a3.23,3.23,0,0,0-.8-.08L-1,5.33c-.49-.08-.92-.12-1.6-.26s-1.82-.43-2.88-.69c.79.34,1.21.57,1.85.79L1.77,6.91c2.4.8,3.37.83,5.29,1.42s3.21,1.17,4.5,1.7a120.42,120.42,0,0,0,13.19,4.48c1.1.31,2.44.74,3.54,1.12l7.42,2.52c1.5.5,3.24,1.11,4.61,1.5,2.31.65,4.43,1.33,6.65,2,2.65.83,5.26,1.62,7.81,2.31,1.28.34,2.74.77,4.13,1.19,5.84,1.74,11.88,3.7,17.5,5.19.49.14,1.21.37,1.82.56l9.13,2.87A96,96,0,0,0,97,36.52c.24,0,1.06.27,1.58.43,1.7.54,3.16.95,4.72,1.38,1,.29,2.57.75,3.54,1.08,4,1.33,8,2.51,12.08,3.74l9.73,3c3.64,1.24,7.62,2.44,11.72,3.64l2.46.75c2.28.71,4.44,1.35,6.64,2l3.64,1.08c5.62,1.71,10.31,3,14.91,4.31,2.07.73,5.07,1.63,8.2,2.57s6.54,2,9.06,2.71c1.21.24-1.45-.68-1.8-.92-.18-.13-3.08-1.08-4.81-1.69l-.59-.21a7.87,7.87,0,0,1-.76-.34,10.11,10.11,0,0,1,1.27.36c.68.22,1.43.46,1.74.54-1.41-.54-1.56-.68-1.56-.78a19.86,19.86,0,0,0-2.26-.88c-1.52-.55-3.38-1.2-5.43-1.88-2.8-.93-3.69-1.3-4.56-1.67-3.38-1.09-6.75-2.26-9.72-3.17l-12.44-3.91c-3.27-1-6.4-2.06-9.59-3.14l-2.86-1c-5.19-1.75-10.31-3.48-14.69-5.07-2.83-.9-5.66-1.75-7.92-2.53-2.71-.94-5.76-1.83-8.17-2.77-.36-.14-1.5-.48-2.27-.73l-9.64-3.06c-3.33-1.09-6.6-2.3-10-3.29-.23-.07-.69-.26-1.08-.39l-4.7-1.6c-2-.66-3.89-1.28-5.75-2-1.71-.64-3.78-1.32-5.91-2C60,20.6,58,20,56.35,19.37c-3.67-1.29-6.75-2.21-9.76-3-.5-.13-1.07-.28-1.62-.46-2.23-.71-4.5-1.42-6.68-2.15-1.48-.5-2.83-1-4.4-1.61-3.34-.85-8.57-2.62-10.71-2.88,0,0-.07,0,0,.06,1.22.76.71.69-3.12-.45-.78-.23-1.61-.48-2.3-.67C14.1,7.24,10,6,6,4.75c-1-.3-2-.62-2.94-.87S1.41,3.5.53,3.23C-.5,2.92-1.61,2.5-3.2,2l1.88,1.17L-5.74,1.39c-.21-.08-.73-.21-1.12-.33.38.28,1.1.67-1.53-.08A76.72,76.72,0,0,0-16-1.62C-20-2.85-24-4.19-28-5.53c-1.83-.62-3.59-1.14-5.43-1.71-3.91-1.2-7.11-1.9-11.11-3.18a4.2,4.2,0,0,0-1.06-.19,10,10,0,0,1-2.15-.5c-.85-.18-.77-.13.08.2,1.23.45,2.56.88,4.16,1.42,0,.11,0,.27-.17.33s-.87-.2-1.33-.31l.07,0c-.86-.09-1.36-.06-.24.48.56.21,1.09.42,1.67.61C-38.47-6.7-34-5-28.75-3.37c.95.29,1.89.66,2.86,1,.77.27,1.71.61,2.34.78,2.8.75,5.13,1.61,7.63,2.47A54.11,54.11,0,0,0-9.8,2.62L-13,.86l4.91,1.36-1.79-.94A5.48,5.48,0,0,1-12.26.32Zm-6.15-1.87c-.28-.1-.51-.2-.76-.3.4.1.8.2,1.19.32a4.55,4.55,0,0,1,.55.26C-17.76-1.37-18.11-1.45-18.41-1.55ZM-35.9-6.82c.37.09.72.16,1.12.28.16,0,.46.19.69.29L-35-6.48Z"/><path class="cls-4" d="M467.7-67.86l-.22,1.41c-.07,2.34-.15,4.68-.22,7a10.19,10.19,0,0,1-.12,1.08c-.12-1.14-.22-2.06-.32-2.93a1.34,1.34,0,0,0-.16-.47c-.1.37-.2.72-.32,1.15-.07-.29-.17-.54-.24-1s-.13-1.1-.21-1.74a7.71,7.71,0,0,0-.19,1.18c0,1.08,0,2.23-.05,3.33,0,1.49.23,2,.25,3.22a20.12,20.12,0,0,1-.27,2.84,42.39,42.39,0,0,0-.29,8.22c0,.68,0,1.51,0,2.2-.06,1.56-.11,3.06-.17,4.62,0,.93-.08,2,0,2.86.08,1.42.07,2.73.07,4.1,0,1.65.05,3.25.16,4.81.06.78.08,1.68.11,2.54.1,3.59.06,7.34.33,10.77,0,.3,0,.75,0,1.12,0,1.89,0,3.78,0,5.65a34.76,34.76,0,0,0,.31,5.89,7.66,7.66,0,0,1,.06,1c0,1.06.06,2,.11,2.9,0,.65.07,1.58.05,2.19-.07,2.46,0,5,.07,7.46,0,2,.07,4,.1,6-.09,2.27,0,4.72.06,7.25,0,.48,0,1,0,1.51,0,1.41.05,2.74.11,4.09,0,.69.05,1.5.07,2.24.06,3.47.2,6.35.38,9.16-.06,1.3,0,3.15,0,5.08s0,4,.15,5.57c.13.73.22-.93.34-1.17s.1-1.93.15-3c0-.16,0-.3,0-.37a1.61,1.61,0,0,1,.1-.48c.05,0,0,1.48,0,1.85.09-.89.18-1,.27-1a6,6,0,0,0,.16-1.42c.06-1,.13-2.12.16-3.4a18.12,18.12,0,0,1,.21-2.86c0-2.1.12-4.2.09-6,0-2.4,0-5.12,0-7.69,0-2,0-4,.1-6,0-.61.05-1.18.07-1.79.1-3.23.21-6.42.41-9.16,0-1.76,0-3.5,0-4.92.08-1.69,0-3.56.18-5.09,0-.22,0-.92,0-1.4v-6c0-2.07.2-4.13.11-6.24,0-.14,0-.43,0-.67,0-1,.08-1.95.11-2.93,0-1.23.05-2.42.15-3.59a35.46,35.46,0,0,0,.1-3.67c0-1.06,0-2.32,0-3.34a42.43,42.43,0,0,0-.07-6c0-.3-.05-.65-.05-1,0-1.38,0-2.79,0-4.14,0-.92.13-1.78.21-2.77-.19-2-.08-5.29-.49-6.53,0,0,0,0-.05,0-.36.82-.44.52-.52-1.84,0-.48,0-1-.06-1.41-.18-2.23-.19-4.76-.25-7.23,0-.61,0-1.25-.06-1.81s-.13-1-.14-1.54,0-1.33.09-2.32c-.2.46-.35.82-.55,1.27.12-1.06.22-1.91.32-2.8,0-.13,0-.45,0-.69-.15.26-.31.73-.39-.88a28,28,0,0,0,.2-4.73c-.05-2.49,0-5,.09-7.47,0-1.14,0-2.23,0-3.36,0-2.42-.33-4.34-.32-6.82a1.6,1.6,0,0,0-.14-.64c-.15-.1-.11-.7-.17-1.29s-.11-.46-.17.08c-.06.77-.06,1.6-.1,2.59-.11,0-.24.07-.36,0a6.05,6.05,0,0,1-.11-.8v0c-.18-.5-.36-.77-.54,0,0,.35-.07.69-.07,1,0,3.14-.32,6-.28,9.2,0,.59-.06,1.18-.09,1.78s-.05,1.08,0,1.46a39,39,0,0,1-.05,4.73,17.59,17.59,0,0,0,.18,3.76L467-68.2c.07,1.07.13,2,.19,3l.35-1.18C467.45-67.19,467.49-67.71,467.7-67.86Zm-.06-3.8a3.71,3.71,0,0,1,.05-.48c0,.24.05.49.05.73a1.47,1.47,0,0,1-.08.35C467.65-71.26,467.63-71.47,467.64-71.66Zm-.26-10.78c0,.23.06.44.07.68a2.08,2.08,0,0,1-.07.44l-.06-.56Z"/><path class="cls-4" d="M843.07-56.62a81.73,81.73,0,0,0-9.79,5.8c-.72.47-1.51,1-2.09,1.33-3,1.83-6.21,3.93-9.59,6.21-1.23.84-2.57,1.71-3.86,2.56-2.58,1.71-5.11,3.4-7.69,5.13-3.38,2.28-6.55,4.51-10.24,6.88-.8.51-1.82,1.22-2.64,1.79-1.92,1.34-3.92,2.65-6,4-2.79,1.84-5.87,3.82-8.29,5.49-4.26,2.94-8.7,5.82-13,8.71-2.68,1.81-5.5,3.69-8.23,5.47C754.82,1.24,748,5.83,741.19,10.29c-.74.48-1.6,1-2.21,1.46-2.62,1.82-5.47,3.67-8.19,5.5l-23.56,15.8c-1.27.85-2.6,1.72-3.89,2.57-5,3.29-10.05,6.59-15.05,9.85-4.08,2.67-8.1,5.31-12.13,8-1.62,1.09-3.31,2.22-4.93,3.28-4.56,3-8.76,5.85-13,8.72-5.64,3.83-11.11,7.63-17.07,11.31-.91.56-2.19,1.41-3.29,2.14-4.3,2.85-7.54,5.24-6.73,5,.65-.17-.48.78-1.6,1.72a14.65,14.65,0,0,0,2.54-1.15c2.84-1.63,5.15-2.9,6.57-3.52.17-.08.64-.36,1-.54a38.58,38.58,0,0,0,4.79-3.13c1.18-.9,2.57-1.88,4.46-3.15l8.64-5.82c1.81-1.22,3.63-2.47,5.42-3.65,6.1-4,12.25-8.08,18.25-11.92,3.68-2.35,7.37-4.78,11.08-7.24L720.7,26.78l11.7-7.71,8.9-5.89c3.13-2.06,6.33-4.12,9.38-6.16s5.79-3.83,8.71-5.73c1.82-1.18,3.83-2.5,5.51-3.65s3.25-2.17,4.9-3.26l17.81-11.72c1.47-1,3.11-2,4.34-2.8,1.92-1.19,4-2.55,5.86-3.8,1.65-1.07,3.18-2.12,4.51-2.88.34-.19,1.41-.9,2.07-1.34,2.84-1.92,5.73-3.87,8.45-5.74,2.12-1.46,4.11-2.81,6.42-4.31,1.59-1,3.26-2.15,5-3.29.43-.34,1-.74,1.15-.9.57-.55,2.29-1.8,3.37-2.66,1.26-1,3.77-2.64,5.42-3.83.79-.58,1.94-1.35,2.85-2a15.4,15.4,0,0,1,1.62-1.39,24,24,0,0,0,4.18-3.56c.36-.37,1-.92,1.56-1.44C844-57.07,843.42-56.76,843.07-56.62ZM742.72,12c.31-.22.61-.43.93-.64l.41-.25-.92.64Z"/><path class="cls-4" d="M704.37,66.44l1.77-.87,8.53-4.73c.46-.26.85-.43,1.34-.68-1.34.85-2.44,1.54-3.45,2.2a3.35,3.35,0,0,0-.51.4l1.48-.62c-.32.23-.6.45-1.07.77s-1.29.83-2,1.31c.64-.3,1-.44,1.48-.71l4-2.26c1.81-1,2.4-1.53,3.82-2.36s2.49-1.3,3.51-1.8c2.81-1.37,6.06-3.1,10-5.49.81-.48,1.81-1.05,2.65-1.51L741.61,47c1.15-.63,2.49-1.34,3.49-1.94,1.69-1,3.28-1.9,4.94-2.85,2-1.12,3.92-2.24,5.77-3.38l3-1.8c4.32-2.52,8.89-5,12.94-7.56.36-.22.9-.53,1.35-.78,2.29-1.29,4.58-2.6,6.85-3.87a74.7,74.7,0,0,0,7-4.23c.16-.12.76-.49,1.14-.7,1.28-.73,2.35-1.37,3.48-2.07.76-.46,1.88-1.12,2.63-1.52,3-1.62,6-3.37,9-5.13,2.4-1.39,4.83-2.77,7.25-4.15,2.81-1.46,5.77-3.16,8.78-4.95.59-.35,1.24-.72,1.83-1,1.72-1,3.31-1.89,4.92-2.86.82-.5,1.79-1.07,2.69-1.58,4.19-2.38,7.6-4.48,10.88-6.63,1.64-.76,3.87-2.05,6.19-3.41s4.92-2.71,6.68-3.94c.72-.77-1.43.13-1.87,0a36.87,36.87,0,0,0-3.8,1.78,2.76,2.76,0,0,1-.48.2c-.26.08-.64.22-.68.17s1.75-1.09,2.16-1.41c-1.17.46-1.39.37-1.51.22s-.8.23-1.85.75-2.63,1.34-4.17,2.22a21.77,21.77,0,0,1-3.57,1.78c-2.5,1.5-5.07,2.91-7.23,4.27-2.8,1.77-6.09,3.71-9.15,5.56-2.4,1.47-4.76,2.79-7.18,4.14-.74.42-1.44.78-2.18,1.2-3.92,2.2-7.79,4.36-11.18,6.13-2.1,1.24-4.16,2.52-5.89,3.47-2.06,1.13-4.28,2.51-6.18,3.45-.28.15-1.11.66-1.68,1-2.39,1.4-4.76,2.81-7.17,4.19s-5,2.77-7.52,4.31c-.17.11-.53.28-.82.45q-1.78,1-3.57,2c-1.49.85-2.92,1.67-4.36,2.42s-2.88,1.59-4.45,2.53c-1.25.75-2.77,1.63-4,2.32-2.81,1.53-5.07,2.89-7.23,4.27-.35.23-.76.48-1.17.72-1.66,1-3.35,2-5,2.88-1.12.63-2.18,1.17-3.39,1.81C735,47,731,49.22,729.66,50.32c0,0,0,0,0,0,1.1-.38.77-.12-2.05,1.56-.58.35-1.19.71-1.68,1-2.63,1.65-5.68,3.42-8.63,5.16l-2.17,1.29c-.66.41-1.15.76-1.81,1.15s-1.62.9-2.83,1.56l1.69-.59-3.46,1.77c-.17.09-.54.32-.83.5.36-.11,1-.36-.94.8-1.57.76-3.54,1.88-5.76,3.18-3,1.75-6,3.47-9,5.14-1.39.77-2.69,1.54-4,2.33-2.9,1.69-5.14,3.17-8.14,4.88a4.84,4.84,0,0,0-.72.51,10.59,10.59,0,0,1-1.53,1c-.6.37-.5.4.16,0l3.15-1.75s.15.07.06.2-.61.4-.94.61l.06,0c-.55.43-.83.71.09.3l1.28-.69c3.81-2.16,7.3-4,11.2-6.22.7-.41,1.44-.79,2.18-1.19.58-.32,1.31-.71,1.77-1,2-1.24,3.82-2.19,5.73-3.23,1.71-.94,3.29-1.88,4.48-2.69l-2.78,1.12,3.57-2.17-1.52.63A6.44,6.44,0,0,1,704.37,66.44Zm-4.56,2.66c-.21.12-.4.2-.59.3l.86-.53.45-.2Zm-12.93,7.59c.26-.17.5-.33.8-.51.12-.07.36-.18.54-.27l-.66.42Z"/><path class="cls-4" d="M781.83,66.05c.48-.22,1.29-.54,1.81-.71,4.21-1.44,8.73-3.32,13.08-5.11,3.42-1.4,6.67-2.73,10.06-3.95,2.2-.78,4.79-1.8,6.89-2.75s3.78-1.61,5.58-2.24c5.44-1.9,11-4.44,16.48-6.26.71-.24,1.62-.7,2.45-1.05,4.13-1.76,8.14-3.58,12.52-5a50.37,50.37,0,0,0,5.51-2.33,175.21,175.21,0,0,1,21-9.09c1-.37,2-.9,3.09-1.33,2.93-1.2,5.48-2.74,8.67-3.75a6.86,6.86,0,0,0,1.57-.82,30.26,30.26,0,0,1,7.88-3.81c2.46-.89,4.48-1.84,6.74-2.88s4.59-1.72,6.1-3a21.2,21.2,0,0,0,5.34-2.94,22.77,22.77,0,0,1,2.85-1.43c1-.47,2.35-.91,3-1.34a38.84,38.84,0,0,1,8.37-3.76c3.8-1.4,7.65-2.93,11.43-4.52,4.28-1.8,6.41-3.46,5.16-4.37s-.08-2.21,2.27-4.06c.54-.43,1-.85,1.57-1.42-.68-.12-1.63-.08-1.94-.36-.82-.71-.5-1.77,1.4-3.54,2.94-2.75,1.59-4.24-2.69-3.47-3.09.55-6.45,1.39-9.68,2.14a20.71,20.71,0,0,1-3.15.72c-2.46-.09-6.75,2-9.68,2.58-2.9,1.54-5.54,1.94-8.5,3.66a30.43,30.43,0,0,1-9.28,3.74c-1.85,1-3.2,1.92-4.55,2.54a66.09,66.09,0,0,0-13.56,7.92c-1.7.65-3.06,1.13-4.47,1.74a20.28,20.28,0,0,0-2.92,1.48c-3.76,2.64-8.31,4.24-12.79,6.8l.33-1.61c-3.54,2.29-5,3.71-5.93,4.94-6.41,3.52-12.62,6.89-19.31,10a36.06,36.06,0,0,0-5.88,3.44c-.76.56-1.69,1.16-2.38,1.63-1.6.7-3,1.2-4,1.74-2.84,1.55-6,2.94-8.7,4.56a66.27,66.27,0,0,1-6.39,3.4c-2,.94-4.12,1.93-6.12,2.93-8.25,4.15-16.51,8.26-24.92,12.27-.8.39-1.74.85-2.37,1.21-1.14.64-2.26,1.16-3.53,1.76-5.55,2.61-10.93,4.93-16.55,7.71-3.63,1.59-7.79,3.72-11.31,5.21-.72.31-2,1-3,1.45-3.72,1.78-7.16,3.61-10.91,5.38-.51.24-1.24.62-1.64.83-1.5.83-3.35,1.71-5.21,2.61l-5.53,2.69c-2,1-3.86,1.9-5.92,2.86-1.22.56-2.36,1.14-3.25,1.61L714.45,92c-1.75.7-4.69,2.11-8.13,3.77l-2.49,1.17-5.22,2.58-3.3,1.68c-1.1.54-1.78.88-3.06,1.48-.84.4-1,.46.2-.06l-.19.09-3.14,1.4c.3-.12,1-.45,3.51-1.48l5.81-2.39,8.28-3.38c3.35-1.42,7.34-3.11,11.64-4.86l4.4-1.84c2.13-.91,4.14-1.75,6.19-2.56,1.49-.58,2.89-1.16,4.17-1.75l2.09-1c1.76-.67,2.66-1,4.84-1.9,4.69-2,9.38-4,14.12-5.77,2.4-.88,5.34-2.08,8.06-3.16,1.45-.57,3.25-1.39,4.37-1.79A56.8,56.8,0,0,0,774,69,57.39,57.39,0,0,0,781.83,66.05Zm154.31-69c-1.57.77-3.15,1.57-4.78,2.29a5.49,5.49,0,0,1-2,.5c-.29-.07-.1-.55.35-.86,2.51-1.75,4.39-3.54,8-5.39C938.91-5.8,937.74-4.45,936.14-2.92Z"/><path class="cls-5" d="M696.7,182.87l6.72,2,1.61.51c3,1,5.83,1.75,9.05,2.69l4.19,1.21,24,7.15c1,.33,2,.64,3.13,1,1.59.48,2.7.76,4.24,1.21,8.19,2.38,15.14,4.64,22.91,6.88,4.71,1.36,8.85,2.56,13.71,4L791.4,211l20.74,6.17,3.91,1.19c4.54,1.39,8.71,2.58,12.75,3.76l3,.88,1.9.58c1.36.42,3.5,1.1,5,1.53,1.06.32,2.15.62,3.2.92l2.68.81c2,.61,2.82.89,5.8,1.76.08,0,.47.1.69.15l.53.15,2.78.89,1.33.36c2.17.71,5.77,1.81,8.31,2.49l2.22.67c2,.59,3.56,1,5.27,1.5l.72.21c2.22.68,4,1.22,5.63,1.79l1.12.3c2.1.67,7.12,2.13,8.49,2.45l.19.06,1.89.57c2.24.74,4.15,1.31,6.26,1.91l3.32,1,16.79,5,1.56.47c1.27.39,2.54.78,3.87,1.17l2.2.64c3.47,1,6.93,2.07,10.12,3l.17,0,2.69.82c.09,0,0,0,.09.06,1.75.51,3.64,1,5.52,1.62.22.07,0,0,0,0,1.8.5,2.72.8,2.38.77l2.3.64c1.37.49,8.57,2.58,11.24,3.32l6.6,2c3.94,1.18,5.58,1.66,5.81,1.64l5.27,1.57,0-.08.11,0-.1-.05,0-.13-.34-.1h.08c-3.1-.92-5.61-1.64-8.29-2.44-3.09-1-6.44-2-9.91-3l-3.36-1-12.58-3.74c-2.21-.66-4.77-1.45-6.91-2.06l-.74-.2c-4.05-1.21-8.09-2.4-12.17-3.59l-2.65-.79-.77-.25c-3.53-1.14-5.69-1.8-10.47-3.21-10.9-3.22-22.84-6.88-33.44-9.9l-6.05-1.73-17.45-5.2c-.9-.28-1.82-.56-2.81-.84-.45-.31-10.31-3.2-13.52-4.12-.15,0,0,0-.11,0-3.47-1-11-3.22-13.28-4l-3.59-1L813,217.23c-1.41-.47-2.38-.83-4.13-1.38-1.17-.22-5.48-1.5-7.93-2.24l-4.5-1.35-.17-.07c-1.44-.45-2.79-.84-4.24-1.27l.23.06c-2.1-.64-3.78-1.12-4.43-1.24l-1.25-.37c-2.22-.7-3.87-1.24-6.35-2s-5.43-1.57-8.1-2.35c-1.55-.46-2.59-.75-3.56-1l-12.74-3.79c-4.69-1.45-8.74-2.63-13.78-4.13-2.48-.74-5.89-1.77-8.15-2.39l-.09,0-37.06-11Zm247,73.48,3.06.91.09,0Zm10.74,3.22h0l.27.08Z"/><path class="cls-4" d="M773.91,193.47c.57.16,1.49.44,2.06.63,4.67,1.53,9.89,3.07,14.9,4.56,3.92,1.17,7.65,2.29,11.47,3.49,2.45.77,5.41,1.67,7.87,2.37s4.38,1.29,6.4,1.92c6.07,1.92,12.65,3.8,18.68,5.71.79.26,1.88.56,2.83.84,4.79,1.4,9.49,2.75,14.34,4.29,1.8.58,4.39,1.33,6.36,1.88,10.44,2.92,14.48,4.11,24.39,7.15,1.15.35,2.39.7,3.59,1.06,3.37,1,6.55,1.85,10.06,3,.47.15,1.48.43,1.89.53,2.59.62,6.12,1.68,9.34,2.67,2.77.86,5.16,1.55,7.81,2.32,2.48.72,5.2,1.59,7.24,2.08,2.7.82,4.57,1.31,6.5,1.8.81.21,2.24.64,3.41,1s2.67.81,3.49,1c3.2.84,6.37,1.83,9.77,2.87,4.29,1.32,8.69,2.65,13.05,3.95,4.93,1.48,7.77,2.2,7,1.74s1-.08,4.13.73l2.18.53c-.59-.24-1.51-.58-1.67-.7-.43-.3.38-.2,3,.45,4.12,1,3.56.51-.87-1-3.2-1.1-6.78-2.3-10.2-3.45-1.13-.39-2.72-.89-3.34-1.14-2.28-.89-7.36-2.42-10.4-3.48-3.5-1-6.19-2-9.83-3-4.35-1.26-8.08-2.44-10.59-3.33-2.26-.66-4-1.13-5.53-1.61-6.2-1.9-12-3.58-16.68-4.78-1.92-.61-3.44-1.11-5.07-1.61-1.1-.35-2.64-.82-3.48-1-4.85-1.29-9.92-2.95-15.41-4.52h1.12c-4.46-1.23-6.53-1.68-8-2-7.78-2.25-15.3-4.42-23.13-6.81-2.52-.77-5.22-1.52-7.25-2l-3.06-.79c-1.85-.58-3.38-1.08-4.6-1.43-3.44-1-7.13-2.13-10.46-3-2.3-.62-4.89-1.36-7.71-2.22-2.38-.72-4.83-1.46-7.21-2.16-9.83-2.89-19.66-5.77-29.57-8.75-1-.28-2.06-.61-2.84-.82-1.39-.38-2.7-.78-4.19-1.23-6.53-2-12.72-4-19.39-5.92-4.19-1.35-9.18-2.77-13.21-4.11-.82-.28-2.35-.71-3.52-1.06-4.38-1.34-8.55-2.47-13-3.82-.6-.19-1.48-.43-2-.55-1.84-.47-4-1.13-6.23-1.79s-4.47-1.35-6.54-1.94c-2.42-.69-4.59-1.31-7-2.09-1.42-.45-2.79-.83-3.88-1.09l-3-.8c-2-.79-5.4-1.88-9.46-3.11-1-.29-1.9-.63-2.9-1-2.26-.63-5.06-1.48-6.23-1.69-1.46-.27-2.87-.52-4.08-.71s-2.22-.27-3.77-.54c-1-.18-1.22-.13.12.39.18.07-.13,0-.25,0l-3.71-.91c.23.46,1.06.77,3.82,2,1.37.59,3.53,1.29,6.61,2.26l9.46,3c3.89,1.07,8.52,2.41,13.44,3.92,1.63.5,3.45,1,5.08,1.5,2.47.71,4.79,1.4,7.12,2.15,1.69.54,3.3,1,4.81,1.41l2.48.64c2,.66,3,1,5.5,1.75q8.21,2.32,16.2,4.91c2.69.87,6.06,1.89,9.16,2.84,1.66.51,3.78,1.09,5,1.51,3.1,1,5.5,1.68,8.6,2.48C767.74,191.65,770.56,192.54,773.91,193.47ZM954,246.36c-1.86-.54-3.74-1.08-5.64-1.65-.75-.22-1.94-.61-2.17-.71s.17-.06.76.1c3.23.85,5.88,1.47,10.21,2.73C958,247.28,956.27,246.89,954,246.36Z"/><path class="cls-4" d="M722.21,166.91l2.85,1,14.34,4.21c.77.22,1.37.47,2.18.75l-6.13-1.3a4,4,0,0,0-1-.09l2.25,1c-.61-.08-1.14-.12-2-.29s-2.29-.49-3.62-.79c1,.4,1.54.66,2.35.92l6.79,2c3,.94,4.26,1,6.68,1.63,2.61.8,4.08,1.39,5.71,2a137.84,137.84,0,0,0,16.7,5.37c1.38.36,3.08.87,4.48,1.32l9.36,3.08c1.9.62,4.1,1.38,5.83,1.82,2.93.75,5.6,1.56,8.41,2.4,3.35,1,6.65,1.91,9.89,2.66,1.62.37,3.47.87,5.23,1.35,7.39,2,15,4.39,22.18,5.91.62.13,1.54.41,2.3.64l11.55,3.42c4.75,1.44,9.2,2.74,12.22,2.86a14.07,14.07,0,0,1,2,.42c2.16.63,4,1,6,1.49,1.33.29,3.27.79,4.49,1.21,5,1.7,10.11,3,15.29,4.36,4.1,1.1,8.22,2.28,12.33,3.43a130.81,130.81,0,0,0,14.82,4.35c1,.24,2.12.54,3.12.84,2.87.87,5.61,1.58,8.43,2.2,1.43.31,3.1.75,4.63,1.18A141,141,0,0,0,951,232.46a62.85,62.85,0,0,0,10.33,3.23c1.95.49,4,1.13,6,1.68l1.47.4a4.55,4.55,0,0,0,1.47.16,6.16,6.16,0,0,0,3.12-1.3c1.06-1,.39-.36-.36-.5a2.19,2.19,0,0,1-1.78-1.16c-.13-.51-3.76-1.81-5.89-2.76a3.4,3.4,0,0,1-.71-.4c-.34-.32-.86-.69-.83-.91s3.11.61,3.93.58c-1.68-1.06-1.73-1.73-1.6-2.34.08-.39-1-1-2.7-1.67a53.64,53.64,0,0,0-6.85-2.34c-3.59-1-4.66-1.64-5.68-2.34-4.38-1-8.65-2.32-12.52-3-5-.89-10.7-2.26-16.06-3.4-4.23-.9-8.21-2-12.28-3.24-1.24-.36-2.39-.77-3.63-1.13-6.62-1.91-13.14-3.82-18.68-5.76-3.63-.86-7.29-1.58-10.17-2.46-3.45-1.05-7.39-1.79-10.43-3-.45-.18-1.91-.46-2.91-.71-4.12-1-8.25-1.93-12.36-3s-8.42-2.52-12.84-3.38c-.3-.05-.88-.29-1.37-.43-2-.58-4-1.16-6-1.71-2.53-.69-5-1.32-7.34-2.12-2.18-.73-4.83-1.41-7.57-2-2.19-.49-4.8-1.13-6.88-1.74a108.93,108.93,0,0,0-12.53-2.92c-.64-.11-1.36-.23-2.07-.41-2.85-.7-5.77-1.4-8.56-2.16-1.89-.51-3.62-1.12-5.63-1.74-4.28-.72-11-2.54-13.72-2.6,0,0-.09,0,0,.08,1.57.95.91.91-4-.23-1-.24-2.06-.49-2.93-.67-4.67-.93-9.9-2.26-15-3.51-1.26-.31-2.6-.65-3.75-.9s-2.09-.37-3.22-.65c-1.31-.33-2.73-.78-4.76-1.36l2.44,1.3-5.67-1.87c-.26-.09-.93-.23-1.43-.35.51.3,1.43.73-1.91-.07-2.51-.91-5.87-1.81-9.69-2.78-5.14-1.31-10.3-2.74-15.37-4.15-2.35-.65-4.58-1.21-6.93-1.81-5-1.28-9-2.14-14.1-3.51a10.85,10.85,0,0,0-1.32-.27,21.82,21.82,0,0,1-2.7-.63c-1.05-.27-1-.17.14.15l5.32,1.51c0,.07.1.18-.14.2-.09,0-1.09-.26-1.67-.4l.1,0c-1.05-.18-1.64-.24-.19.29l2.13.65c6.44,1.86,12.17,3.73,18.8,5.61,1.2.34,2.4.75,3.63,1.13,1,.3,2.19.68,3,.88,3.53.9,6.5,1.86,9.67,2.85a74.49,74.49,0,0,0,7.75,2l-4.19-2,6.21,1.52-2.31-1A8.44,8.44,0,0,1,722.21,166.91Zm-7.81-2.06c-.36-.1-.65-.21-1-.32.5.12,1,.23,1.5.37a4.71,4.71,0,0,1,.71.27C715.22,165.06,714.78,165,714.4,164.85ZM692.19,159l1.42.33.88.3-1.17-.27Z"/><path class="cls-4" d="M789.53,95.07c.5-.1,1.33-.24,1.84-.32,4.22-.62,8.85-1.43,13.31-2.21,3.49-.6,6.82-1.18,10.24-1.71,2.2-.34,4.84-.78,7-1.19s3.89-.7,5.7-1c5.45-.82,11.27-1.93,16.7-2.72.71-.1,1.67-.3,2.52-.45,4.25-.76,8.41-1.56,12.77-2.17,1.63-.23,3.92-.66,5.66-1,9.19-1.87,12.77-2.55,21.65-3.95,1-.16,2.12-.39,3.19-.57,3-.52,5.76-1.19,8.93-1.63a14.61,14.61,0,0,0,1.66-.36A67.83,67.83,0,0,1,909,74.16c2.48-.39,4.59-.8,6.94-1.25s4.65-.75,6.39-1.29a48.53,48.53,0,0,0,5.7-1.28c.7-.19,2-.42,3-.62s2.39-.4,3.1-.58a84.77,84.77,0,0,1,8.66-1.63c3.84-.61,7.77-1.28,11.65-2,4.38-.78,6.82-1.5,6-1.9s.64-1,3.33-1.78c.63-.19,1.12-.37,1.86-.62a8,8,0,0,1-1.62-.16c-.5-.32.13-.78,2.39-1.55,3.5-1.2,2.78-1.86-1.28-1.53-2.94.24-6.2.6-9.31.92-1,.1-2.46.32-3,.31-2.16,0-6.66.87-9.45,1.11-3.09.67-5.57.84-8.76,1.59A68.2,68.2,0,0,1,925,63.55c-2,.46-3.47.83-4.86,1.1a149.4,149.4,0,0,0-14.64,3.45c-1.73.28-3.1.49-4.54.75-1,.18-2.36.45-3.09.65-4.19,1.15-8.77,1.84-13.59,3l.82-.71a46.55,46.55,0,0,0-6.87,2.15c-6.85,1.53-13.47,3-20.43,4.35-2.24.43-4.6,1-6.35,1.49l-2.64.72c-1.65.3-3,.51-4.11.75-3,.67-6.31,1.28-9.21,2-2,.49-4.29,1-6.79,1.48l-6.4,1.27c-8.69,1.81-17.38,3.59-26.16,5.34-.84.16-1.82.36-2.5.52-1.22.28-2.39.5-3.71.76-5.79,1.14-11.33,2.15-17.23,3.35-3.75.69-8.14,1.62-11.76,2.27l-3.12.62-11.46,2.34-1.72.36c-1.61.36-3.55.75-5.49,1.14l-5.79,1.17-6.2,1.24c-1.26.24-2.47.49-3.42.7l-2.65.55c-1.79.31-4.86.92-8.46,1.64l-2.6.51-5.48,1.12-3.48.73-3.2.64c-.88.18-1,.2.2,0l-.21,0-3.24.61,3.6-.65,6-1,8.46-1.46,11.94-2.11,4.52-.8,6.34-1.1c1.52-.26,2.95-.51,4.28-.76l2.17-.43c1.79-.29,2.68-.41,4.93-.82,4.84-.89,9.65-1.74,14.44-2.5l8.2-1.37c1.48-.25,3.34-.61,4.47-.78,2.8-.42,4.91-.82,7.63-1.39C784.05,96,786.58,95.64,789.53,95.07ZM949.26,65.13c-1.65.33-3.31.68-5,1a11.66,11.66,0,0,1-2,.22c-.24,0,.08-.24.59-.38,2.79-.76,5-1.54,8.86-2.35C952.66,63.87,951.18,64.46,949.26,65.13Z"/><path d="M818.14,101.48h0a4.12,4.12,0,0,0,1.22-.14c.4-.08,1.09-.16,1.49-.23l2.35-.54,4.57-.83a24.21,24.21,0,0,1,2.39-.52l2.41-.53,4.81-.93,6.52-1.28.14,0,.45-.1,0,0,6.12-1.18s0,0,.08,0c.24-.06.49-.09.74-.13l.23-.05.28-.07a.65.65,0,0,1,.19,0l2-.45c.61-.13,2.14-.26,2.77-.31l8.51-1.65a.23.23,0,0,1,.13-.06,14,14,0,0,1,1.57-.29h0l1.29-.25,0,0a9.05,9.05,0,0,1,2.05-.39l10.72-2.08.43-.11a.38.38,0,0,1,.21,0l13.3-2.58L914.37,83c3.21-.63,6.42-1.23,9.61-1.91,1.61-.27,3.22-.58,4.83-.83s3.22-.56,4.83-.87l4-.8a.43.43,0,0,1,.17,0l.72-.17c.08,0,0,0,.06,0l1.15-.23.53-.14a.29.29,0,0,1,.16,0h.07l9-1.79h0c.51-.12,1-.24,1.54-.32h.12c3.86-.76,7.71-1.46,11.57-2.21a.3.3,0,0,1,.14-.06l.26,0a.33.33,0,0,1,.14,0l.9-.19.64-.16a.42.42,0,0,1,.16,0c1.35-.23,2.61-.55,4-.81h.1a.76.76,0,0,1,.21,0c.05,0,.12,0,.16,0,.87-.17,2.61-.5,2.64-.53l0-.07s0-.09,0-.1,0-.05-.06,0c-1,.18-1.94.4-2.89.58h0l-1.94.38a.76.76,0,0,1-.25.06c-.19,0-.29.09-.47.12a1,1,0,0,1-.24,0c-10,1.93-20,3.87-30.08,5.76-.05,0,.08,0,0,0l-.3,0-2.35.44c-12.82,2.53-25.66,5-38.49,7.42L887,88a.27.27,0,0,1-.16.08l-1.25.22a.38.38,0,0,1-.15,0l-7,1.34a.35.35,0,0,1-.15.07c-.82.15-1.6.3-2.39.42l-12.33,2.36a.36.36,0,0,1-.19.05l-.26.06-6.53,1.23-19.25,3.69-9.63,1.85-4.78,1-2.4.46a12,12,0,0,0-1.19.26l-.63.11a2.6,2.6,0,0,0-.59.21s0,0,0,0S818.1,101.47,818.14,101.48Z"/><path class="cls-4" d="M860.65,106.53c.31,0,.83-.08,1.15-.09,2.62-.11,5.51-.39,8.28-.64,2.18-.19,4.25-.38,6.38-.5,1.37-.07,3-.2,4.37-.36s2.42-.25,3.55-.3c3.4-.16,7-.6,10.4-.72.45,0,1-.11,1.57-.17,2.64-.27,5.24-.58,7.95-.66a34.07,34.07,0,0,0,3.53-.36,128,128,0,0,1,13.47-1.43c.64,0,1.32-.15,2-.21,1.87-.17,3.59-.55,5.56-.59a5.5,5.5,0,0,0,1-.18A21.5,21.5,0,0,1,935,99.6c1.54-.09,2.85-.26,4.32-.45a21.65,21.65,0,0,0,4-.57,15.22,15.22,0,0,0,3.54-.66,14.55,14.55,0,0,1,1.87-.29c.64-.08,1.49-.11,1.93-.23a28.21,28.21,0,0,1,5.39-.63c2.39-.15,4.84-.35,7.25-.59,2.73-.27,4.24-.76,3.71-1.35s.37-1,2-1.6c.39-.12.69-.27,1.15-.45-.36-.15-.9-.25-1-.43-.32-.44.06-.89,1.46-1.47,2.16-.89,1.69-1.76-.85-2-1.83-.16-3.87-.21-5.82-.3a13.08,13.08,0,0,1-1.9-.08c-1.35-.37-4.15,0-5.9-.09-1.92.33-3.47.17-5.45.57a21.89,21.89,0,0,1-5.9.51c-1.23.24-2.15.47-3,.58A47.92,47.92,0,0,0,932.69,92c-1.07.07-1.93.12-2.83.21a15.14,15.14,0,0,0-1.92.31c-2.6.73-5.45.87-8.44,1.46l.49-.71a15.45,15.45,0,0,0-4.25,1.52c-4.25.79-8.37,1.53-12.7,2.09a25.68,25.68,0,0,0-3.94.82c-.53.16-1.16.32-1.64.44-1,.11-1.89.16-2.55.29-1.88.34-3.93.56-5.73,1-1.25.28-2.66.54-4.22.73-1.31.17-2.67.36-4,.56-5.41.83-10.81,1.65-16.27,2.4-.52.07-1.14.17-1.56.25-.76.15-1.48.24-2.3.35-3.61.48-7.05.84-10.72,1.39-2.33.26-5.06.7-7.32.92-.46,0-1.29.19-1.94.28l-7.12,1.06c-.33,0-.81.12-1.07.17-1,.18-2.21.35-3.42.52l-3.6.52c-1.33.2-2.52.37-3.85.54-.79.1-1.54.22-2.13.32l-1.64.26c-1.12.1-3,.36-5.27.67l-1.62.22-3.4.51-2.16.34-2,.28c-.54.08-.63.09.13,0l-.13,0-2,.23,2.24-.22,3.71-.34,5.27-.47,7.43-.72,2.81-.27c1.36-.14,2.65-.26,4-.36.94-.08,1.84-.16,2.66-.27l1.36-.17c1.11-.08,1.66-.09,3.06-.24,3-.33,6-.62,9-.81,1.51-.09,3.38-.26,5.11-.4.92-.07,2.08-.21,2.79-.25a41.14,41.14,0,0,0,4.74-.51A41.34,41.34,0,0,0,860.65,106.53ZM960,94.93c-1,.15-2,.32-3.1.44a4.14,4.14,0,0,1-1.23,0c-.15-.07,0-.27.36-.36a42.45,42.45,0,0,1,5.5-1.45C962.13,94,961.22,94.43,960,94.93Z"/><path class="cls-4" d="M961.12,158.54c1.56.43,3,.91,4.62,1.25,1.44.29,3.12.41,5,.65,1.67,1.27,5.53,2.36,6,4.05a12.92,12.92,0,0,1-5.41,1.84c-2,.32-3.59.84-5.17,1.21-3.68-.31-4.59-1.36-6.36-2.23-.92,0-1.66.12-2.46.11-2.73,0-5.37,0-8.32-.32-6.09-.61-12.2-1.07-18.3-1.62-3.54-.33-7.1-.76-10.64-1-3.88-.31-7.67-1-11.63-1.17a87.89,87.89,0,0,1-9-1,52.5,52.5,0,0,0-8.42-.81c-2.43,0-5.29-.3-8-.52-5.56-.45-11.12-.89-16.68-1.43-7-.68-13.93-1.3-20.91-2.06a71.17,71.17,0,0,1-8.27-1.08l-3.48-.07a14.7,14.7,0,0,1-2.06-.14,57.76,57.76,0,0,0-6.84-.72l-8.64-.9L792.43,150l-7.44-.7c-2.49-.26-5-.49-7.49-.86-1-.14-2.14-.25-3.2-.35l-7.42-.68-7.51-.83-13.31-1.52c-1.84-.21-3.48-.38-5.23-.5-2.11-.16-4.42-.37-6.65-.57-2.71-.24-4.81-.55-6.73-.9s-2.87-.64-4.06-.94c1.42-.19,3.76-.26,10.16.21,3,.39,6.69.67,10.38,1,3.22.26,6.33.48,9.59.89,1.75.22,4,.39,5.91.54,8.6.64,17.28,1.44,25.91,2.13l13.46,1,7.52.55,21.11,1.81,24.86,2.17.54,0c6.78.2,13.68,1,20.5,1.47l12.41.76c3,.17,6.13.56,9.1.53a15.11,15.11,0,0,1,1.61.1c6.85.74,13.67,1.23,20.51,1.51,2.14.09,4.33.3,6.49.49,5,.41,10.12,1,15.14,1.26,4.09.23,8.15.19,12.17.18C954.07,158.77,957.3,158.64,961.12,158.54Z"/><path class="cls-4" d="M11.67,108.61a8.09,8.09,0,0,1,1.19.16c2.66.59,5.66.88,8.53,1.21,2.25.26,4.4.51,6.58.87,1.41.24,3.1.45,4.52.56s2.52.24,3.67.43c3.48.57,7.27.86,10.72,1.43.46.07,1.08.1,1.63.15,2.75.27,5.46.51,8.24,1,1,.16,2.52.29,3.65.38,6,.43,8.32.69,14,1.43l2,.23c1.94.22,3.76.32,5.78.62a10.66,10.66,0,0,0,1.09.09,52.68,52.68,0,0,1,5.35.53c1.6.21,3,.35,4.48.52s3,.38,4.15.43c1.55.2,2.62.28,3.73.36.46,0,1.28.14,2,.22s1.53.2,2,.24c1.83.16,3.64.41,5.6.67l7.49,1c2.82.34,4.44.51,4,.38s.52,0,2.3.17l1.24.14-1-.19c-.26-.08.19-.06,1.69.14,2.32.3,2,.19-.59-.28l-5.86-1.1c-.65-.12-1.56-.29-1.92-.38-1.32-.31-4.21-.82-6-1.2-2-.35-3.53-.71-5.59-1.07-2.47-.42-4.6-.84-6-1.2l-3.15-.55c-3.53-.67-6.8-1.26-9.48-1.55l-2.88-.61c-.63-.12-1.51-.29-2-.35-2.76-.34-5.65-1-8.77-1.49l.64-.24a23.28,23.28,0,0,0-4.57-.33c-4.43-.69-8.72-1.33-13.17-2.19a31.44,31.44,0,0,0-4.14-.51l-1.75-.11c-1-.22-1.92-.44-2.61-.53-2-.27-4.06-.71-6-.87-1.31-.12-2.79-.3-4.4-.6-1.35-.25-2.75-.5-4.11-.71-5.6-.85-11.21-1.68-16.86-2.65a15.54,15.54,0,0,0-1.62-.22,17.39,17.39,0,0,1-2.39-.34c-3.72-.66-7.23-1.55-11-2.12-2.37-.62-5.23-.95-7.5-1.67-.46-.15-1.34-.22-2-.35-2.49-.5-4.89-.61-7.39-1.13a5.67,5.67,0,0,0-1.12-.1,19.7,19.7,0,0,1-3.57-.4c-1.25-.2-2.54-.46-3.73-.58a23.3,23.3,0,0,1-4-.67,5.9,5.9,0,0,0-2.23-.2c-.34,0-.85,0-1.75,0a14.4,14.4,0,0,0-5.32-1.7,10.3,10.3,0,0,1-1.63-.59c-1.3-.08-2.89-.39-3.6-.1a23.5,23.5,0,0,0-2.46,1.15c-.84.47-1.39,1-2.33,1.46-.63.3-.77.61,0,1.08.1.06-.09.13-.17.23l-2.18.3c0,1.24.47,1.48,1.94,2.83a8,8,0,0,0,3.71,1.33l5.38,1.12a50,50,0,0,1,7.74.66,28.6,28.6,0,0,0,2.92.3,25.55,25.55,0,0,1,4.08.54,10.3,10.3,0,0,0,2.77.26l1.44-.08a12.06,12.06,0,0,0,3.13.65,53,53,0,0,1,9.28,1.28c1.54.35,3.47.6,5.25.86.94.14,2.17.18,2.88.35a17.55,17.55,0,0,0,4.95.41A18.77,18.77,0,0,0,11.67,108.61ZM115,120.4l-3.23-.41-1.25-.2c-.14,0,.09,0,.42,0,1.84.19,3.34.33,5.81.67C117.24,120.6,116.24,120.52,115,120.4Z"/><path class="cls-4" d="M-43.64,129c2.73-2.63,4.46-2.72,6.23-2.83a38.1,38.1,0,0,1,11.86.86,85,85,0,0,0,15.47,2l12.79.78a102.85,102.85,0,0,0,12.78-.16c4.91-.36,9.89-.44,14.84-.34a59.2,59.2,0,0,1,9.43.94c5.31,1,10.68,1,16,1.32,2.21.11,4.42.2,6.62.25a56.64,56.64,0,0,1,10.16,1.13,44.89,44.89,0,0,0,9.81.69c2.61,0,5.26,0,7.81-.17,6.16-.36,12.33.12,18.5.38,2.24.1,4.41.15,6.51,0,4.94-.2,10.08.25,15.15.5.2,0,.41.05.8.09a15.73,15.73,0,0,1-2.85.14l-2.9-.07c-2.9-.09-5.77-.15-8.57,0-3.64.2-7.39.09-11.09,0-2.19,0-4.37-.19-6.55-.3a10.14,10.14,0,0,0-1.23,0c-3.44.31-7.1.25-10.48.78a8.67,8.67,0,0,1-2,.15c-2.45-.31-4.94,0-7.39-.15a6.45,6.45,0,0,0-1.22-.05,17.12,17.12,0,0,1-7.56-.56,28.9,28.9,0,0,0-6.83-.78c-3,0-6.08,0-9.1-.19-4-.19-8,.16-12-.36-2.71-.36-5.46-.59-8.18-.93A40.85,40.85,0,0,0,23,132a110.26,110.26,0,0,1-12.34.64c-4.39.09-8.8.16-13.2.08-2.6,0-5.2-.43-7.81-.56-3.71-.19-7.32-1-11.08-.89a22.47,22.47,0,0,1-5.28-.67c-3.19-.69-6.32-1.53-9.46-2.34-1.71-.39-3.39-1.09-5.26-.26A4.17,4.17,0,0,0-43.64,129Z"/><path class="cls-4" d="M105.16,211.84l-1.86.19-9.11,1.45c-.49.08-.89.11-1.41.17l3.77-.85a3.92,3.92,0,0,0,.59-.2l-1.52.06c.36-.1.67-.22,1.2-.35s1.41-.32,2.23-.51c-.66.06-1,.07-1.54.15-1.41.22-2.9.48-4.32.71-1.94.31-2.63.59-4.16.86s-2.64.36-3.71.47c-2.94.3-6.39.78-10.7,1.63-.87.16-2,.34-2.84.48l-6,.9c-1.21.18-2.63.38-3.72.6-1.83.35-3.53.63-5.31.93-2.13.36-4.22.74-6.23,1.15-1,.21-2.16.42-3.27.63-4.65.85-9.53,1.62-13.94,2.56-.39.09-1,.18-1.46.26-2.44.41-4.9.83-7.33,1.22a68.52,68.52,0,0,0-7.6,1.52c-.19,0-.84.19-1.25.26-1.37.23-2.52.46-3.75.71-.83.17-2,.4-2.83.51-3.21.46-6.42,1.07-9.68,1.65-2.58.46-5.19.9-7.78,1.35-3,.38-6.15,1-9.41,1.57l-2,.35c-1.83.29-3.55.6-5.29,1-.89.18-1.94.36-2.9.53-4.5.77-8.2,1.54-11.81,2.41-1.71.14-4.1.57-6.6,1s-5.25.82-7.21,1.35c-.89.48,1.31.38,1.67.62a31.71,31.71,0,0,0,4-.33l.49,0c.26,0,.64,0,.67.09s-1.91.4-2.38.56c1.19,0,1.36.14,1.41.32s.8.07,1.9-.05,2.77-.34,4.42-.63a19.34,19.34,0,0,1,3.75-.41c2.71-.54,5.45-1,7.81-1.48,3.06-.67,6.61-1.34,9.92-2,2.62-.53,5.14-.95,7.72-1.37.8-.12,1.54-.22,2.33-.35,4.19-.69,8.33-1.36,11.92-1.84,2.27-.43,4.51-.9,6.35-1.18,2.2-.35,4.62-.86,6.61-1.08.3,0,1.2-.23,1.82-.34,2.58-.48,5.14-1,7.72-1.43s5.37-.83,8.08-1.41l.88-.12c1.27-.21,2.53-.4,3.81-.62,1.6-.27,3.13-.54,4.66-.74s3.07-.48,4.77-.81c1.36-.27,3-.56,4.32-.77,3-.46,5.44-.94,7.8-1.47.39-.09.83-.19,1.27-.27,1.79-.33,3.61-.66,5.37-1,1.19-.2,2.31-.34,3.6-.52,2.6-.6,6.84-1.29,8.41-1.84,0,0,0,0,0,0-1.11,0-.73-.15,2.32-.74.62-.12,1.29-.25,1.82-.37,2.87-.63,6.15-1.22,9.34-1.82.79-.15,1.63-.3,2.34-.45s1.27-.31,2-.44,1.73-.27,3-.47l-1.7,0,3.66-.45c.17,0,.58-.11.89-.17-.36,0-1,0,1.09-.43,1.64-.16,3.76-.52,6.16-1,3.22-.6,6.48-1.14,9.69-1.65,1.48-.24,2.88-.5,4.35-.77,3.13-.57,5.6-1.17,8.81-1.73a4.23,4.23,0,0,0,.81-.22,9.45,9.45,0,0,1,1.67-.38c.65-.13.57-.19-.13-.09-1,.15-2.08.33-3.37.54,0-.06-.11-.12,0-.21s.67-.16,1-.24h-.07c.63-.21,1-.37,0-.3l-1.36.19c-4.08.69-7.77,1.17-12,1.92-.76.13-1.54.23-2.32.35-.63.09-1.4.2-1.9.31-2.2.45-4.11.71-6.13,1-1.83.28-3.54.61-4.86,1l2.84-.08-3.87.79,1.56-.06A5.49,5.49,0,0,1,105.16,211.84Zm4.9-.9c.23,0,.43-.05.63-.08-.31.07-.62.14-.93.19a3.73,3.73,0,0,1-.47,0Zm14-2.59c-.29.07-.55.14-.87.2l-.58.06.73-.16Z"/><path class="cls-4" d="M-53.7,262l5.82-1.56c3.79-1,7.58-1.93,11.33-2.77,4.87-1.09,9.83-2.3,14.82-3.53l12.21-3c4.07-1,8.1-2,12.14-3.1,4.64-1.23,9.37-2.44,14.09-3.63,3-.76,6.07-1.5,9-2.18,5.1-1.17,10.21-2.46,15.32-3.72l6.31-1.58c3.32-.83,6.55-1.6,9.73-2.3s6.22-1.45,9.38-2.26c2.48-.64,5-1.28,7.41-1.93,5.83-1.57,11.72-3,17.6-4.45,2.15-.52,4.21-1,6.19-1.61,4.65-1.32,9.57-2.49,14.4-3.72l.78-.14a15,15,0,0,1-2.66.88c-.91.24-1.84.47-2.76.69-2.77.69-5.5,1.39-8.14,2.12-3.43,1-7,1.82-10.54,2.7-2.08.52-4.17,1-6.26,1.51l-1.16.3c-3.25.9-6.73,1.76-9.91,2.67-.59.17-1.32.38-1.89.51-2.36.53-4.71,1.18-7.05,1.74-.39.09-.84.19-1.17.29-2.56.73-4.9,1.23-7.23,1.72-2.12.45-4.27.95-6.54,1.53l-8.67,2.16c-3.79.94-7.57,1.94-11.38,2.83L19.65,244c-3.3.78-6.6,1.6-9.8,2.47-3.85,1.05-7.78,2-11.69,3l-12.56,3.19c-2.47.62-5,1.2-7.46,1.82-3.53.87-7,1.66-10.58,2.57-1.66.43-3.41.83-5.07,1.21-3.06.7-6.09,1.37-9.12,2-1.65.37-3.27.73-5,1.2C-52.06,261.68-52.56,261.77-53.7,262Z"/><path class="cls-4" d="M901.58,225l-7.33-2.07c-4.77-1.36-9.51-2.77-14.15-4.24-6-1.91-12.2-3.77-18.43-5.63l-15.25-4.56c-5.09-1.52-10.14-3-15.22-4.44-5.85-1.66-11.79-3.38-17.69-5.12-3.75-1.1-7.6-2.26-11.24-3.4-6.32-2-12.72-3.86-19.11-5.76-2.63-.79-5.27-1.57-7.9-2.34-4.14-1.23-8.17-2.45-12.09-3.71-3.75-1.22-7.72-2.4-11.69-3.54-3.11-.91-6.27-1.83-9.31-2.68-7.35-2.06-14.71-4.28-22-6.48-2.67-.8-5.25-1.56-7.77-2.23-5.91-1.59-12-3.46-18.08-5.23-.24-.07-.48-.17-.95-.33a22.19,22.19,0,0,1,3.45.8l3.45,1c3.46,1,6.89,2,10.23,2.94,4.36,1.19,8.81,2.54,13.22,3.85,2.61.77,5.2,1.57,7.8,2.36l1.46.42c4.11,1.13,8.47,2.42,12.51,3.5.75.21,1.68.45,2.39.68,2.92.92,5.88,1.74,8.8,2.62.48.15,1,.33,1.46.44,3.26.87,6.14,1.81,9,2.75,2.61.85,5.29,1.68,8.13,2.51,3.61,1.06,7.24,2.13,10.84,3.21,4.74,1.42,9.5,2.76,14.23,4.22l9.75,3c4.1,1.26,8.23,2.48,12.26,3.61,4.87,1.36,9.79,2.8,14.71,4.23q7.85,2.28,15.72,4.6c3.1.92,6.2,1.88,9.31,2.8,4.42,1.32,8.73,2.68,13.21,4,2.08.6,4.25,1.28,6.29,1.92l11.28,3.58c2,.65,4.05,1.29,6.26,1.91C899.58,224.3,900.18,224.51,901.58,225Z"/><path class="cls-4" d="M78.77,223c-1.58.39-2.62.65-3.67.89-2.4.56-4.8,1.07-7.18,1.48-3.09.54-6.23,1.18-9.39,1.84l-7.73,1.61c-2.58.54-5.12,1.11-7.68,1.71-2.93.7-5.93,1.37-8.91,2-1.89.41-3.85.8-5.71,1.14-3.23.59-6.47,1.3-9.71,2l-4,.85c-2.1.45-4.15.86-6.17,1.19s-3.94.74-5.94,1.19c-1.57.36-3.16.71-4.68,1.08-3.68.9-7.42,1.66-11.14,2.43-1.36.28-2.66.57-3.91.9-2.94.79-6.05,1.4-9.11,2.07-.12,0-.25,0-.5.06a5.74,5.74,0,0,1,1.68-.57c.57-.14,1.16-.26,1.74-.38,1.75-.37,3.48-.75,5.15-1.19,2.17-.56,4.43-1,6.66-1.49,1.32-.28,2.64-.53,4-.79l.74-.17c2-.52,4.25-1,6.25-1.53A11.58,11.58,0,0,1,.74,239c1.5-.27,3-.64,4.46-.94.25,0,.54-.09.74-.15a41,41,0,0,1,4.58-.9c1.35-.2,2.72-.46,4.15-.78q2.74-.6,5.49-1.17c2.4-.5,4.79-1.07,7.2-1.53,1.65-.31,3.32-.65,5-1,2.09-.4,4.18-.84,6.2-1.34,2.43-.6,4.92-1.15,7.4-1.7,2.64-.59,5.29-1.18,7.94-1.75,1.57-.34,3.15-.64,4.72-1,2.24-.47,4.45-.86,6.71-1.36,1-.24,2.16-.45,3.2-.63l5.79-1c1-.18,2.08-.35,3.19-.62C77.73,223.16,78.05,223.13,78.77,223Z"/><path class="cls-4" d="M377.08,102.64c-1.69-1.16-5.08-3.34-11.66-7.39l-2.55-1.59c-3.61-2.3-7.57-4.74-11.79-7.29l-4.81-2.94-9.58-5.82c-4.24-2.56-8.33-4.9-12.84-7.72-1-.61-2.28-1.37-3.33-2-2.45-1.42-4.93-2.93-7.49-4.49-3.45-2.11-7.22-4.48-10.32-6.26-5.43-3.14-10.89-6.52-16.29-9.72-3.39-2-6.93-4.11-10.29-6.18-8.46-5.24-17-10.23-25.48-15.47-.9-.56-2-1.22-2.74-1.66-3.4-1.88-6.89-4.05-10.33-6.08L207.87.68c-1.61-.93-3.25-1.93-4.85-2.91L184.43-13.68c-5-3.14-10-6.18-15.12-9.12-2.06-1.18-4.19-2.41-6.19-3.66-5.59-3.5-11-6.46-16.45-9.44-7.25-4-14.48-7.65-21.37-12.7-1-.78-2.65-1.73-4-2.55-5.39-3.2-10-5-9.7-3.59.24,1.13-1.63.79-3.49.47.66,1.12.46,1.81,2,3.19a39.1,39.1,0,0,1,6.47,6.78,7.71,7.71,0,0,0,1,.95,15.22,15.22,0,0,0,6,3.53,34,34,0,0,1,6.08,2.73l11.16,6c2.34,1.25,4.74,2.44,7,3.76,7.65,4.44,15.44,8.87,22.79,13.43,4.5,2.79,9.15,5.45,13.86,8.12L220.36,14.6,235.13,23l11.28,6.38c4,2.26,7.91,4.61,11.82,6.78s7.32,4.16,11,6.29c2.28,1.32,4.81,2.77,7,3.94s4.15,2.31,6.23,3.5l22.47,12.83c1.85,1.05,3.93,2.24,5.42,3.16,2.34,1.42,4.94,2.87,7.34,4.24,2.07,1.19,4.05,2.27,5.6,3.28.4.26,1.76,1,2.59,1.48l10.87,6c2.75,1.5,5.29,2.92,8.19,4.59l6.29,3.55c.6.3,1.33.69,1.59.8.87.38,3.14,1.6,4.63,2.36,1.74.89,4.88,2.71,7,3.9l3.67,2.07c.81.41,1.06.48,2.29,1.17,3.89,2.16,4.7,2.51,5.87,3.09.55.26,1.44.74,2.25,1.17ZM248.54,30.18l1.22.64c.13.07.31.21.47.32L249,30.51Z"/><path class="cls-4" d="M332.21,47.22c-.31-.23-.79-.61-1.09-.86-2.4-2-5.14-4.15-7.77-6.2-2.06-1.61-4-3.14-6-4.76-1.27-1-2.81-2.28-4.12-3.26s-2.32-1.77-3.35-2.63c-3.12-2.61-6.62-5.22-9.71-7.83-.4-.35-1-.76-1.49-1.15-2.53-1.93-5-3.8-7.5-5.91-.92-.79-2.3-1.82-3.36-2.58-5.62-4-7.77-5.63-12.9-9.83-.59-.48-1.26-1-1.89-1.45-1.77-1.38-3.54-2.51-5.32-4a8.67,8.67,0,0,0-1-.71,34.43,34.43,0,0,1-5-3.63c-1.43-1.18-2.71-2.11-4.13-3.16a33.63,33.63,0,0,0-3.9-2.8A23.85,23.85,0,0,0,250.07-16c-.47-.26-1.22-.84-1.85-1.3s-1.39-1.12-1.86-1.4a43.4,43.4,0,0,1-5.2-3.89c-2.22-1.81-4.52-3.63-6.82-5.41-2.6-2-4.26-2.89-4.17-2.1s-1,.37-2.85-.61c-.43-.23-.79-.38-1.32-.63a4.72,4.72,0,0,1,.63,1.08c0,.54-.63.52-2.25-.23-2.5-1.16-2.66-.23-.54,1.93,1.53,1.56,3.3,3.22,5,4.82a21.86,21.86,0,0,1,1.64,1.57c1,1.32,3.71,3.29,5.18,4.76,1.92,1.32,3.18,2.66,5.21,4A34.49,34.49,0,0,1,246.41-9c1.25.83,2.22,1.42,3.06,2A75.22,75.22,0,0,0,258.77-1c1,.8,1.79,1.45,2.65,2.11a22.11,22.11,0,0,0,1.9,1.34c2.78,1.61,5.41,3.79,8.45,5.8l-.9.05a24,24,0,0,0,4.76,2.43c4.29,2.89,8.43,5.69,12.63,8.79a40.53,40.53,0,0,0,4,2.62l1.75,1c1,.75,1.78,1.4,2.45,1.85,1.89,1.29,3.85,2.77,5.71,4,1.29.81,2.71,1.78,4.22,2.89,1.28.95,2.6,1.91,3.89,2.82,5.35,3.78,10.68,7.56,16,11.44.51.37,1.12.8,1.55,1.08.76.51,1.47,1,2.27,1.62,3.51,2.56,6.81,5.08,10.42,7.65,2.24,1.7,4.95,3.6,7.1,5.25.44.34,1.27.91,1.9,1.37l7,5,1.07.74c1,.68,2.18,1.54,3.37,2.39l3.53,2.54c1.31.94,2.48,1.77,3.77,2.73.77.56,1.51,1.09,2.1,1.49l1.63,1.15c1.05.82,2.92,2.18,5.12,3.77l1.57,1.15,3.36,2.39L384.24,88l1.95,1.4c.54.39.62.46-.11-.09-.1-.08.06,0,.13.08l1.94,1.47L386,89.22l-3.52-2.74-5-3.89-7.07-5.47-2.67-2.07L364,72.14c-.89-.71-1.73-1.37-2.54-2l-1.31-1c-1-.83-1.54-1.27-2.88-2.29-2.89-2.19-5.74-4.39-8.51-6.65L344,56.45c-.87-.68-2-1.52-2.64-2.06-1.6-1.33-2.87-2.28-4.55-3.45C335.45,49.72,334,48.53,332.21,47.22Zm-95.8-71.84c1,.72,2,1.44,3,2.2a6.39,6.39,0,0,1,1.07,1c.08.17-.22.14-.55-.06a62.53,62.53,0,0,1-5.83-3.46C233.91-25.67,235-25.25,236.41-24.62Z"/><path class="cls-4" d="M-7.81.84C-9.43.09-10.88-.65-12.58-1.35c-1.5-.62-3.27-1.19-5.27-1.91-1.63-1.35-5.6-3.21-5.92-4.5a19.46,19.46,0,0,1,6,.34c2.16.36,3.92.48,5.65.7A21.38,21.38,0,0,1-5.66-3.36c1,.24,1.78.41,2.63.65,2.9.81,5.72,1.58,8.82,2.65,6.41,2.2,12.85,4.29,19.27,6.45C28.79,7.65,32.53,9,36.25,10.21c4.09,1.35,8,2.91,12.23,4.2,3.11,1,6.33,2.12,9.52,3.33,2.8,1.07,5.71,2.14,8.86,3,2.58.71,5.59,1.76,8.42,2.69C81.13,25.37,87,27.3,92.85,29.3l22,7.51c3,1,6,2,8.66,3.15l3.7,1.08c.7.21,1.72.51,2.17.69,2.41,1,4.8,1.67,7.19,2.5l9.08,3.13,25,8.65,7.83,2.66c2.62.9,5.26,1.8,7.87,2.77,1,.38,2.24.79,3.35,1.17l7.81,2.65,7.9,2.75,14,4.93c1.93.68,3.65,1.27,5.49,1.87l7,2.36c2.85,1,5,1.77,7,2.55s3,1.23,4.24,1.75c-1.51-.34-4-1-10.75-3.22-3.11-1.11-7-2.39-10.93-3.67-3.4-1.12-6.68-2.19-10.1-3.4-1.84-.66-4.17-1.42-6.22-2.09l-27.31-9-14.21-4.62-7.93-2.57-22.24-7.39-26.2-8.73-.57-.19c-7.18-2.12-14.43-4.68-21.64-7L71.94,25.44c-3.21-1-6.45-2.17-9.62-3-.52-.14-1.14-.35-1.7-.54-7.2-2.5-14.4-4.82-21.64-7-2.26-.69-4.57-1.47-6.85-2.22C26.8,10.89,21.48,9,16.16,7.38,11.85,6,7.52,4.87,3.24,3.7-.28,2.74-3.73,1.88-7.81.84Z"/><path class="cls-5" d="M178.07,79.39l-5.86-1.08-1.39-.39a68.49,68.49,0,0,0-7.91-1.43l-3.67-.55-21-3.85a24.39,24.39,0,0,0-2.69-.84c-1.39-.29-2.38-.24-3.74-.43-7.19-1-13.1-3.24-19.94-4.1-4.14-.51-7.79-1-12-1.7l-4.48-.79L77.29,60.91,73.91,60a105.18,105.18,0,0,0-11.17-1.79l-2.58-.47c-.55-.13-1.1-.26-1.64-.42a42.41,42.41,0,0,0-4.27-1.25c-.93-.16-1.92-.12-2.84-.22s-1.58-.38-2.33-.52a19.45,19.45,0,0,0-5-1.26c-.1.22-.46.28-.68.43l-.47-.07c-.77-.34-1.62-.67-2.34-1a11.46,11.46,0,0,0-1.21.14A13.4,13.4,0,0,0,32.15,52a18.21,18.21,0,0,0-1.93-.43,27.13,27.13,0,0,0-4.7-.17l-.63-.12c-1.91-.55-3.45-.93-4.74-2.07l-1,.13c-1.76-.79-6.19-1.31-7.54-.53a.55.55,0,0,1-.17,0c-.56-.14-1.08-.3-1.62-.45a10.44,10.44,0,0,0-5.39-1.49c-.92-.22-1.86-.42-2.89-.58L-13.2,43.93l-1.36-.25a24.4,24.4,0,0,0-3.33-.92,10.87,10.87,0,0,0-1.95-.17,39.24,39.24,0,0,0-8.91-1.12l-.15,0-2.31-.66c-.06-.16.08-.29,0-.44a25.91,25.91,0,0,1-4.85-.63c-.19-.06.08-.32,0-.39-1.65.17-2.39-.31-1.94-1.23-.48.17-1.58.12-2.11.27-1-1.35-7.42-1.79-9.86-1.54-1.88-.56-3.77-1.11-5.68-1.54-3.42-.76-4.87-.91-5.27.29l-4.6-.84-.21,1.18-.09,0c0,.08,0,.16.06.23l-.38,2.12.31.06c0,.13-.09.27-.15.42,2.73.36,5,.41,7.31.89a27,27,0,0,0,8.58,2l2.94.49c3.66.63,7.36,1.14,11,1.85C-34.17,44.34-32,45.06-30,45a4.72,4.72,0,0,0,.67-.08c3.55.57,7.1,1,10.71,1.43l2.32.4.64.33c2.91,1.68,4.77,2.15,9,2.72,9.58,1.35,19.86,4.23,29.35,4.38,1.9,0,3.64.11,5.41.18L43.3,57a7.17,7.17,0,0,0,2.44.5c.15,1.68,8.84,2.7,11.71,2.84.14-.08,0-.19.14-.27,3,.46,9.64,1.27,11.61,2,1.07-.09,2.32,0,3.24-.12l3.81.65a18.73,18.73,0,0,0,3.44,1.77c1.17-.79,4.94-.15,7.09.23l3.92.8c.08.06.14.12.12.18,1.25.31,2.44.44,3.71.63a.77.77,0,0,1-.22.06c1.83.42,3.33.49,4,.11l1.09.18a42.68,42.68,0,0,0,5.48,1.53c2.27.39,4.79.5,7.14.83,1.36.19,2.28.28,3.14.35l11.14,1.91c4.07,1,7.63,1.47,12,2.22,2.17.37,5.14,1,7.15,1.08h.08L178,80.09ZM-37.57,39.85l-2.68-.49-.06-.13Zm-9.33-2.12,0,0-.23-.07Z"/><path class="cls-4" d="M94.48,84.27c-.46-.08-1.2-.23-1.66-.33-3.77-.82-8-1.6-12-2.36-3.15-.6-6.16-1.16-9.23-1.81-2-.42-4.36-.88-6.34-1.23s-3.53-.63-5.15-1c-4.88-1-10.17-2-15-3-.64-.14-1.51-.27-2.28-.41-3.85-.7-7.64-1.34-11.53-2.22-1.45-.33-3.54-.69-5.12-.94C17.73,69.65,14.48,69.1,6.5,67.45c-.92-.19-1.92-.34-2.88-.52-2.71-.52-5.28-.81-8.1-1.46A15.1,15.1,0,0,0-6,65.26a57.29,57.29,0,0,1-7.53-1.2c-2.23-.47-4.15-.78-6.29-1.14A57.31,57.31,0,0,0-25.66,62a39.24,39.24,0,0,0-5.25-.7c-.66,0-1.81-.26-2.75-.41s-2.16-.43-2.82-.49A73,73,0,0,1-44.35,59c-3.46-.71-7-1.4-10.51-2-4-.74-6.28-.87-5.71-.21s-.86.7-3.41.57c-.59,0-1.07,0-1.78,0a6.54,6.54,0,0,1,1.32.7c.32.46-.36.69-2.53.66-3.37,0-3,.83.57,1.88,2.56.76,5.44,1.51,8.18,2.25.91.25,2.19.52,2.69.73,1.81.76,5.92,1.41,8.36,2.11,2.84.4,5,1.07,7.94,1.44a56.75,56.75,0,0,1,8.56,1.63c1.83.24,3.21.38,4.48.59A122.93,122.93,0,0,0-12.65,71c1.55.31,2.78.57,4.09.8.89.17,2.14.37,2.82.43,3.94.31,8,1.19,12.48,1.75l-.92.4a37.17,37.17,0,0,0,6.53.26c6.3.85,12.39,1.67,18.73,2.73,2,.34,4.23.6,5.87.71l2.47.22c1.5.26,2.74.52,3.73.66,2.78.37,5.76.9,8.46,1.21,1.86.21,4,.49,6.23.88l5.83.93c8,1.21,15.9,2.42,23.91,3.72.77.12,1.67.26,2.3.34,1.12.14,2.18.32,3.39.52,5.28.87,10.3,1.77,15.69,2.6,3.4.61,7.43,1.21,10.7,1.81l2.85.45L133,93l1.59.24c1.47.19,3.24.48,5,.76l5.29.84,5.65.9c1.15.19,2.26.36,3.13.48l2.43.36c1.61.31,4.41.77,7.7,1.29l2.37.39,5,.77,3.19.47,2.92.45c.8.13.93.15-.17,0-.16,0,.09,0,.18,0l3,.51L177,99.83l-5.39-1L164,97.36l-10.81-2-4.09-.76-5.73-1.07c-1.37-.27-2.66-.51-3.87-.71l-2-.33c-1.6-.32-2.4-.51-4.44-.87-4.39-.78-8.74-1.58-13-2.47l-7.39-1.45c-1.33-.26-3-.55-4-.76-2.51-.54-4.43-.87-6.92-1.24C99.44,85.18,97.17,84.71,94.48,84.27ZM-50.63,59.12c1.5.23,3,.46,4.55.73a9.72,9.72,0,0,1,1.74.45c.19.11-.15.2-.63.16-2.61-.21-4.78-.23-8.28-.74C-53.93,59.17-52.48,59.11-50.63,59.12Z"/><path class="cls-4" d="M592.87,55.91c.21-.23.56-.59.79-.81,1.86-1.8,3.82-3.87,5.71-5.86,1.49-1.56,2.9-3,4.39-4.52,1-.95,2.1-2.11,3-3.11s1.64-1.75,2.43-2.53c2.4-2.33,4.81-5,7.22-7.3.31-.3.7-.75,1.05-1.14,1.79-1.91,3.51-3.82,5.46-5.66.72-.68,1.67-1.73,2.38-2.54,3.72-4.3,5.2-5.94,9.07-9.79.44-.45.88-1,1.34-1.44,1.27-1.34,2.32-2.71,3.74-4a5.88,5.88,0,0,0,.66-.79,25.2,25.2,0,0,1,3.35-3.85c1.09-1.07,1.95-2,2.92-3.12a25.73,25.73,0,0,0,2.59-3,16.64,16.64,0,0,0,2.23-2.76c.25-.36.79-.93,1.21-1.41s1-1.05,1.29-1.41a30.77,30.77,0,0,1,3.6-4c1.67-1.67,3.34-3.41,5-5.15,1.85-2,2.69-3.28,2-3.32s-.3-.92.62-2.38c.22-.33.36-.63.6-1.05-.35.14-.8.43-1,.39-.48-.07-.44-.62.26-1.91,1.1-2,.28-2.26-1.69-.73-1.43,1.1-3,2.4-4.42,3.62a15.67,15.67,0,0,1-1.43,1.2c-1.2.65-3,2.75-4.37,3.81-1.22,1.48-2.44,2.39-3.67,4a25.36,25.36,0,0,1-4,4.2c-.77,1-1.32,1.72-1.9,2.37a54.76,54.76,0,0,0-5.62,7.2c-.74.75-1.34,1.34-2,2a15.91,15.91,0,0,0-1.24,1.46c-1.5,2.18-3.52,4.15-5.38,6.5l0-.78A17.49,17.49,0,0,0,626.74,12c-2.68,3.3-5.28,6.49-8.15,9.7a31,31,0,0,0-2.44,3.12c-.31.45-.68,1-.95,1.37-.7.75-1.3,1.34-1.72,1.86-1.19,1.46-2.56,2.95-3.66,4.39-.76,1-1.66,2.1-2.69,3.25-.87,1-1.76,2-2.61,3-3.49,4.1-7,8.18-10.59,12.26-.34.39-.74.85-1,1.18-.47.59-.95,1.13-1.49,1.74-2.38,2.68-4.7,5.18-7.09,7.95-1.56,1.7-3.32,3.77-4.85,5.4-.31.33-.84,1-1.27,1.46l-4.63,5.36-.7.82c-.62.78-1.41,1.68-2.21,2.58s-1.6,1.85-2.35,2.7c-.86,1-1.64,1.9-2.52,2.89-.52.58-1,1.15-1.38,1.6l-1.06,1.26c-.77.79-2,2.22-3.49,3.89L558.82,91l-2.21,2.57c-.48.58-1,1.14-1.39,1.65l-1.29,1.5c-.36.41-.42.48.09-.07l-.08.09-1.35,1.48,1.53-1.6L556.65,94l3.6-3.76,5-5.36,1.91-2c.92-1,1.79-1.91,2.69-2.83.65-.67,1.26-1.31,1.8-1.92l.9-1c.77-.78,1.17-1.15,2.11-2.17,2-2.19,4-4.35,6.13-6.43,1.06-1,2.33-2.39,3.52-3.61.63-.66,1.4-1.51,1.9-2a46.87,46.87,0,0,0,3.19-3.45A45.52,45.52,0,0,0,592.87,55.91Zm66.36-72.86c-.67.77-1.34,1.56-2,2.32a4.51,4.51,0,0,1-.92.79c-.15.05-.11-.21.07-.47a48.42,48.42,0,0,1,3.23-4.56C660.23-19,659.82-18,659.23-16.95Z"/><path class="cls-4" d="M44.52,38a5.81,5.81,0,0,1-1-.27,67.06,67.06,0,0,0-7.11-2.06c-1.88-.49-3.67-1-5.48-1.54a38.16,38.16,0,0,0-3.77-1,28.48,28.48,0,0,1-3.07-.8c-2.87-1-6.06-1.61-8.91-2.57a13.91,13.91,0,0,0-1.37-.32c-2.3-.55-4.58-1-6.87-1.81a25.06,25.06,0,0,0-3.07-.74A94.22,94.22,0,0,1-7.87,24.05c-.54-.16-1.15-.27-1.72-.42-1.62-.41-3.18-.6-4.84-1.16a4,4,0,0,0-.93-.16,19.73,19.73,0,0,1-4.52-.94c-1.32-.4-2.47-.65-3.75-.94a21.46,21.46,0,0,0-3.51-.74,15.56,15.56,0,0,0-3.16-.55,14.33,14.33,0,0,1-1.65-.34c-.57-.12-1.28-.36-1.68-.4a28,28,0,0,1-4.71-1.14c-2-.6-4.15-1.17-6.24-1.71-2.37-.62-3.77-.73-3.49-.19s-.61.58-2.16.44c-.36,0-.65,0-1.09-.05.26.2.68.43.74.58.14.38-.3.56-1.63.5-2-.09-1.9.6.16,1.53,1.48.68,3.16,1.36,4.75,2a15.35,15.35,0,0,1,1.56.67c1,.69,3.45,1.33,4.86,2,1.68.4,2.91,1,4.67,1.42a21,21,0,0,1,5,1.64c1.09.24,1.92.39,2.67.6a42,42,0,0,0,8.08,1.67c.91.32,1.63.58,2.4.82a11.14,11.14,0,0,0,1.67.43c2.38.3,4.77,1.21,7.42,1.76l-.65.47a11.6,11.6,0,0,0,4,.16c3.76.82,7.4,1.61,11.14,2.68a17,17,0,0,0,3.53.63c.49,0,1.07.09,1.51.13.88.28,1.6.56,2.19.68,1.67.34,3.42.89,5,1.13a28.38,28.38,0,0,1,3.73.78c1.14.33,2.31.64,3.46.92,4.73,1.13,9.47,2.25,14.22,3.51a12.26,12.26,0,0,0,1.37.3,14.3,14.3,0,0,1,2,.47c3.12.85,6,1.88,9.26,2.65,2,.7,4.39,1.2,6.28,2,.38.15,1.13.29,1.69.45,2.09.6,4.13.89,6.23,1.51A6.05,6.05,0,0,0,67,50a18.78,18.78,0,0,1,3,.62c1,.27,2.14.59,3.15.79a24.24,24.24,0,0,1,3.35.87,6.42,6.42,0,0,0,1.88.37c.3,0,.73.07,1.5.16a15,15,0,0,0,4.44,1.71,11.06,11.06,0,0,1,1.36.55,13.25,13.25,0,0,0,3,.46c.76-.13,1.5-.28,2.14-.45s1.2-.48,2-.65c.53-.11.66-.29.06-.67-.08-.05.08-.07.15-.13l1.85.1c0-.78-.35-1-1.55-2a9.24,9.24,0,0,0-3.07-1.36l-4.48-1.48a54.1,54.1,0,0,1-6.48-1.49c-.78-.23-1.66-.44-2.45-.6a27.94,27.94,0,0,1-3.41-.92,9.78,9.78,0,0,0-2.31-.55L70,45.19a11.44,11.44,0,0,0-2.6-.88,51,51,0,0,1-7.75-2.14c-1.27-.47-2.88-.9-4.36-1.34-.79-.23-1.82-.4-2.41-.63a14.55,14.55,0,0,0-4.16-.91A15.42,15.42,0,0,0,44.52,38ZM-42.22,17.35c.9.21,1.81.4,2.72.63a4.12,4.12,0,0,1,1,.4c.1.09-.12.18-.41.14a38.31,38.31,0,0,1-5-.67C-44.26,17.39-43.36,17.34-42.22,17.35Z"/><polygon class="cls-4" points="-19.43 -17.5 182.97 55.5 182.81 55.95 -20.02 -15.84 -19.43 -17.5 -19.43 -17.5"/><line class="cls-4" x1="136.98" y1="188.66" x2="-60.52" y2="206.87"/><path class="cls-4" d="M135.85,188.48c-1.3,0-3.85.11-8.73.45l-1.9.11c-2.71.13-5.65.33-8.77.58l-3.55.26-7.08.53c-3.13.25-6.1.56-9.46.76-.73,0-1.68.14-2.44.22-1.79.18-3.62.31-5.52.45-2.55.18-5.37.35-7.62.58-4,.4-8,.67-12,1-2.48.23-5.08.45-7.58.61-6.29.42-12.55,1-18.82,1.43-.68,0-1.46.08-2,.15-2.44.31-5,.47-7.55.7L11.12,198.4c-1.17.12-2.38.21-3.57.29l-13.8.94c-3.74.23-7.43.5-11.15.89-1.49.15-3,.31-4.53.4-4.17.24-8.06.76-12,1.25-5.2.66-10.26,1.52-15.68,1.36-.83,0-2,.08-3,.17-4,.34-7,1.2-6.3,1.94s-.53,1.2-1.6,1.79c.76.41.92.92,2.23,1.1a22,22,0,0,1,5.86,1.4,4.71,4.71,0,0,0,.87.16,8.21,8.21,0,0,0,4.38-.4,18.75,18.75,0,0,1,4.13-.93l7.93-1.12c1.67-.23,3.34-.53,5-.69,5.58-.55,11.21-1.17,16.68-1.52,3.35-.22,6.73-.58,10.13-1l26-2.87,10.71-1.14,8.16-.92c2.86-.3,5.77-.56,8.58-.9s5.3-.59,8-.84c1.65-.16,3.49-.36,5-.58s3-.35,4.49-.51L84,195c1.34-.14,2.84-.3,4-.38,1.73-.12,3.6-.35,5.34-.53,1.5-.16,2.92-.35,4.1-.4.3,0,1.28-.12,1.88-.19l7.79-1c2-.26,3.8-.48,5.91-.7l4.55-.51,1.11-.19c.58-.15,2.2-.37,3.25-.55,1.22-.2,3.51-.43,5.06-.62l2.65-.31c.57-.1.72-.16,1.61-.27,2.79-.34,3.34-.48,4.16-.63.38-.07,1-.16,1.59-.25ZM43,199.1l.86-.13h.36l-.85.13Z"/><path class="cls-4" d="M118.68,128.18l-1.75-.34-8.7-1c-.47-.06-.84-.15-1.33-.24l3.67.13a2.93,2.93,0,0,0,.6-.06l-1.4-.41c.36,0,.67-.06,1.19,0s1.37,0,2.18.07c-.62-.13-1-.24-1.45-.31l-4.13-.51c-1.85-.24-2.56-.11-4-.25s-2.49-.42-3.5-.64a76.62,76.62,0,0,0-10.19-1.47c-.83-.07-1.87-.2-2.72-.33l-5.72-.87c-1.16-.17-2.5-.4-3.55-.49-1.77-.14-3.39-.36-5.1-.57-2-.25-4-.46-6-.58-1,0-2.09-.16-3.16-.27-4.47-.44-9.11-1.11-13.4-1.29-.38,0-.94-.09-1.4-.15l-7-.89a31.66,31.66,0,0,0-7.35-.48,6.73,6.73,0,0,1-1.21,0c-1.31-.16-2.43-.23-3.62-.28a26.35,26.35,0,0,1-2.72-.28c-3-.54-6.14-.79-9.27-1.1-2.47-.25-5-.56-7.46-.84a65,65,0,0,0-9-1.17c-.61,0-1.28-.12-1.88-.2-1.75-.25-3.4-.41-5.09-.49-.86,0-1.87-.14-2.8-.25A67.43,67.43,0,0,0-20,112a29.4,29.4,0,0,0-6.28-1c-2.35-.2-5-.78-7-.52-1,.68,1,1.59,1.24,2.36.12.4,2.34.82,3.66,1.23a1.57,1.57,0,0,1,.44.19c.23.18.56.38.56.54s-1.86,0-2.34.13c1.07.54,1.16,1,1.13,1.48,0,.29.68.55,1.71.82a25.43,25.43,0,0,0,4.19.71,7.48,7.48,0,0,1,3.51.87c2.63.07,5.24.42,7.55.38,3-.06,6.43.13,9.65.22,2.53.06,5,.32,7.42.61.76.09,1.46.22,2.22.3,4,.44,8,.9,11.37,1.48,2.19.13,4.38.16,6.13.38,2.1.27,4.46.29,6.33.69.28.06,1.15.08,1.75.12,2.49.15,5,.28,7.45.49s5.12.63,7.77.68c.17,0,.53.08.83.12l3.65.4c1.53.15,3,.27,4.45.5a41.59,41.59,0,0,0,4.58.43c1.31.06,2.89.18,4.15.33a61.93,61.93,0,0,0,7.54.46c.38,0,.81,0,1.24,0,1.72.13,3.47.26,5.16.43,1.15.11,2.2.3,3.43.47,2.54,0,6.6.41,8.19.16,0,0,0,0,0,0-1-.42-.61-.47,2.34-.28l1.76.1c2.8.08,6,.35,9,.58.76,0,1.56.12,2.26.15s1.24,0,1.92.06,1.66.19,2.89.34l-1.53-.57,3.45.57.87.06c-.32-.14-.9-.31,1.11-.18,1.54.3,3.57.5,5.88.7,3.1.26,6.23.6,9.29.94,1.42.16,2.77.27,4.19.39,3,.26,5.42.32,8.5.62a3.42,3.42,0,0,0,.8,0,8.6,8.6,0,0,1,1.62.07c.64,0,.58,0-.09-.12l-3.22-.37c0-.07-.07-.15.07-.2s.65,0,1,0l-.07,0c.63,0,1-.1.1-.29l-1.3-.18c-3.91-.44-7.4-1-11.43-1.4-.73-.08-1.46-.2-2.21-.3-.59-.08-1.33-.18-1.81-.22-2.13-.15-3.94-.42-5.87-.68a38.29,38.29,0,0,0-4.69-.39l2.6.79-3.74-.25,1.44.41A4.41,4.41,0,0,1,118.68,128.18Zm4.72.42.6.1c-.3,0-.61,0-.91,0-.14,0-.29-.07-.44-.1Zm13.43,1.19-.85,0a4.91,4.91,0,0,1-.54-.1l.7,0Z"/><path class="cls-4" d="M125.5,168.9l-2.27-.32c-3.74,0-7.49,0-11.21,0-.6,0-1.1-.1-1.73-.17,1.81-.28,3.29-.49,4.67-.73a2.19,2.19,0,0,0,.73-.31l-1.85-.53a11.3,11.3,0,0,1,1.5-.47c.75-.17,1.74-.3,2.76-.46a12.13,12.13,0,0,0-1.89-.3c-1.73,0-3.57,0-5.32,0-2.38,0-3.25.5-5.14.59a28.53,28.53,0,0,1-4.55-.39,58.19,58.19,0,0,0-13.15-.27c-1.07.09-2.4.11-3.5.09-2.5,0-4.91-.14-7.4-.2-1.49,0-3.24-.11-4.58,0-2.26.19-4.35.2-6.55.25-2.62,0-5.19.17-7.67.45-1.24.13-2.67.21-4,.29-5.74.3-11.73.27-17.19,1-.48.06-1.19.06-1.79.07-3,.05-6,.12-9,.14-3.72,0-7.2.1-9.39.86a7.74,7.74,0,0,1-1.54.18c-1.68,0-3.11.18-4.63.34a27.53,27.53,0,0,1-3.48.16c-3.95-.17-7.91.1-11.92.28-3.18.15-6.39.21-9.6.31a76.52,76.52,0,0,0-11.58.16c-.77.06-1.64.09-2.42.09-2.25,0-4.37.12-6.53.33-1.09.11-2.38.17-3.57.2a87.72,87.72,0,0,0-14.59,1.52,37.64,37.64,0,0,0-8.12-.09c-3,.16-6.45-.08-8.89.58-1.13,1,1.55,1.74,2,2.63.22.47,3.11.61,4.84.89a1.75,1.75,0,0,1,.6.17c.32.18.77.37.8.57s-2.36.28-2.94.53c1.44.49,1.63,1.06,1.68,1.63,0,.36,1,.56,2.3.74a33.55,33.55,0,0,0,5.43.25,9.88,9.88,0,0,1,4.6.55c3.35-.3,6.71-.24,9.63-.66,3.78-.54,8.17-.83,12.26-1.24,3.22-.32,6.33-.36,9.51-.37,1,0,1.88.06,2.86.05,5.16-.06,10.26-.07,14.66.21C1,178.31,3.8,178,6.06,178c2.71,0,5.7-.35,8.14,0,.36,0,1.48-.09,2.25-.14,3.17-.19,6.34-.44,9.52-.55s6.59.09,10-.32c.23,0,.7,0,1.08,0,1.55,0,3.11,0,4.69,0,2,0,3.86-.11,5.73,0a39.33,39.33,0,0,0,5.87-.13c1.68-.14,3.69-.24,5.33-.21a54.31,54.31,0,0,0,9.62-.67,14.36,14.36,0,0,1,1.57-.19c2.2-.11,4.45-.24,6.61-.27,1.48,0,2.85.13,4.43.2,3.22-.55,8.44-.59,10.4-1.46,0,0,0-.08,0-.11-1.34-.64-.86-.82,2.9-1.11.77-.06,1.58-.12,2.25-.21,3.55-.5,7.59-.69,11.52-1,1-.07,2-.12,2.89-.22s1.58-.31,2.44-.36c1-.06,2.14,0,3.72,0l-2-.92c1.68.16,3,.3,4.48.41a11,11,0,0,0,1.11-.08c-.44-.25-1.2-.5,1.37-.74a39.63,39.63,0,0,0,7.57.07c4-.23,8-.28,11.93-.28,1.83,0,3.55-.12,5.37-.21,3.85-.21,6.91-.81,10.87-.94a2.31,2.31,0,0,0,1-.26c.16-.24,1.13-.25,2.07-.33s.72-.3-.15-.32c-1.24,0-2.55,0-4.14,0,0-.19-.13-.4,0-.61a7.92,7.92,0,0,1,1.27-.22l-.08,0c.79-.33,1.22-.64,0-.9-.56,0-1.1-.08-1.67-.07-5,.09-9.55-.25-14.72,0-.94,0-1.89-.05-2.85-.06-.77,0-1.72-.05-2.33,0a55.08,55.08,0,0,1-7.56.12,26.36,26.36,0,0,0-6,.49l3.46,1.14-4.78.49,1.89.56C124.4,168.5,125.24,168.53,125.5,168.9Zm6.05-.32c.29,0,.52,0,.77.07a10.92,10.92,0,0,1-1.15.12,2.39,2.39,0,0,1-.57-.11C130.92,168.63,131.26,168.58,131.55,168.58Zm17.2-1c-.35.05-.69.12-1.08.16a5.59,5.59,0,0,1-.7-.09l.89-.14Z"/><path class="cls-4" d="M577.8-45.29a28.64,28.64,0,0,0-4,5.53c-.27.44-.58.91-.82,1.25-1.21,1.73-2.41,3.7-3.65,5.81l-1.43,2.39L565-25.53c-1.24,2.11-2.33,4.18-3.72,6.41-.3.48-.66,1.14-.95,1.67-.67,1.23-1.41,2.47-2.16,3.75-1,1.72-2.17,3.6-3,5.16-1.49,2.72-3.11,5.46-4.62,8.18l-2.93,5.17c-2.47,4.27-4.81,8.59-7.21,12.88-.27.46-.57,1-.77,1.39-.87,1.72-1.87,3.49-2.78,5.25L533,31.89l-3.84,7.61L527.84,42c-1.61,3.23-3.3,6.43-4.86,9.66-1.28,2.64-2.57,5.23-3.74,7.91-.47,1.08-1,2.2-1.45,3.26-.69,1.49-1.33,2.93-1.94,4.37l-1.71,4.3c-1.56,3.8-2.81,7.62-4.53,11.48-.27.58-.55,1.47-.81,2.22-1,3-1.59,5.3-1.18,4.93s.21.59.08,1.47a6.08,6.08,0,0,0,.95-1.43,33.11,33.11,0,0,1,2.08-4,6.22,6.22,0,0,0,.3-.59,17.48,17.48,0,0,0,1.21-3.19,31.72,31.72,0,0,1,1-3.11l1.08-2.92,1.16-2.89c.49-1.21,1-2.44,1.46-3.63.83-2,1.77-4,2.67-6s1.8-4,2.78-5.87c1.18-2.33,2.33-4.71,3.47-7.12l4.55-9.13,4.7-9.07,4-7.4c1-1.88,2-3.76,3.06-5.62l3.27-5.88c1-1.88,2.05-3.63,3.1-5.43.65-1.13,1.36-2.38,1.94-3.46s1.15-2.05,1.74-3.07c2.13-3.69,4.28-7.38,6.45-11,.54-.91,1.14-1.92,1.62-2.65.74-1.13,1.48-2.4,2.19-3.57.61-1,1.15-2,1.71-2.72.14-.19.53-.85.77-1.26l3-5.33c.75-1.35,1.47-2.59,2.34-4l1.85-3.06c.13-.3.31-.67.35-.81.12-.48.7-1.61,1-2.38s1.32-2.43,1.89-3.51c.27-.53.69-1.24,1-1.82a5.2,5.2,0,0,1,.43-1.23A9,9,0,0,0,578-44.69c.07-.31.23-.79.37-1.25C578.23-45.75,578-45.44,577.8-45.29ZM542.52,18.62l.31-.61.16-.23-.3.6Z"/><path class="cls-4" d="M542.78,59.1l1-1.2,4.66-6.25c.25-.34.48-.59.76-.93-.67,1.07-1.23,2-1.75,2.76a2.31,2.31,0,0,0-.22.48l.9-.92c-.15.28-.26.54-.5.94l-1,1.64a12.76,12.76,0,0,0,.86-1c.72-1,1.48-2,2.2-3,1-1.33,1.22-1.92,2-3s1.39-1.77,2-2.47a79.65,79.65,0,0,0,5.5-7.33c.41-.62,1-1.37,1.41-2,1-1.39,2-2.74,3.08-4.12.62-.84,1.36-1.81,1.87-2.59.87-1.32,1.72-2.51,2.6-3.76,1-1.49,2.06-3,3-4.44.46-.73,1-1.56,1.55-2.35,2.23-3.33,4.66-6.73,6.64-10,.18-.29.46-.7.7-1l3.56-5.2A48.59,48.59,0,0,0,587-2.23c.07-.15.36-.63.55-.92.66-1,1.18-1.82,1.73-2.73.37-.62.92-1.5,1.31-2.06,1.57-2.25,3-4.6,4.53-7,1.19-1.88,2.38-3.78,3.57-5.67,1.47-2.07,2.88-4.41,4.3-6.84.27-.47.58-1,.87-1.45.83-1.34,1.61-2.6,2.32-3.93.36-.68.81-1.46,1.23-2.18,1-1.67,1.85-3.21,2.64-4.69s1.46-2.93,2.12-4.36A41.79,41.79,0,0,0,615-48.95c1-1.89,2.16-4,2.78-5.58.09-.86-1,.66-1.41.76A24.84,24.84,0,0,0,614.53-51a1.69,1.69,0,0,1-.24.34c-.15.16-.36.41-.42.39a19.79,19.79,0,0,1,.81-1.89c-.61.79-.84.81-1,.74s-.48.48-1,1.27-1.22,2-1.91,3.24a13.15,13.15,0,0,1-1.74,2.66c-.54,1-1.09,2.06-1.64,3s-1.1,1.93-1.57,2.83c-1.21,2.35-2.67,5-4.1,7.49-1.1,2-2.24,3.8-3.41,5.67-.36.57-.73,1.09-1.09,1.66-2,3-3.85,6-5.63,8.49-1,1.65-2,3.32-2.89,4.62-1.06,1.56-2.1,3.37-3.14,4.7-.16.2-.56.87-.85,1.32l-3.58,5.58c-1.27,1.92-2.64,3.75-3.87,5.75-.08.13-.28.39-.43.61L575,10.22c-.77,1.14-1.52,2.22-2.31,3.26s-1.53,2.13-2.32,3.36c-.64,1-1.42,2.15-2.08,3.07-1.51,2.06-2.67,3.82-3.73,5.57-.18.29-.38.62-.59.93-.87,1.27-1.74,2.57-2.62,3.79-.6.83-1.2,1.57-1.86,2.45-1.18,1.93-3.3,4.87-3.88,6.16,0,0,0,0,0,0,.72-.61.57-.31-.91,1.86L553.85,42c-1.34,2.09-3,4.41-4.52,6.66-.38.56-.79,1.14-1.14,1.66s-.57.94-.92,1.44-.89,1.19-1.55,2.07l1.09-1-2,2.42c-.09.11-.28.41-.43.63.24-.19.62-.56-.39.92-.91,1.06-2,2.52-3.17,4.2-1.6,2.27-3.27,4.51-4.93,6.7-.77,1-1.46,2-2.2,3-1.57,2.18-2.71,4-4.34,6.22a2.77,2.77,0,0,0-.36.61,6.41,6.41,0,0,1-.79,1.22c-.32.46-.23.46.14,0l1.76-2.3s.15,0,.13.16-.31.49-.48.76l0,0c-.25.5-.35.81.21.22.24-.31.49-.6.72-.92,2.1-2.8,4.09-5.23,6.21-8.15.38-.53.8-1,1.21-1.58s.73-.94,1-1.29c1.06-1.58,2.07-2.86,3.13-4.24A37.45,37.45,0,0,0,544.65,58l-1.73,1.68,1.87-2.77-.93.94C543.35,58.58,543,59,542.78,59.1Zm-2.44,3.44c-.12.16-.23.28-.34.41l.45-.67a3.58,3.58,0,0,1,.27-.29Zm-7,9.78.42-.64c.06-.09.21-.24.32-.37l-.34.53Z"/></g></g></svg>