<svg xmlns="http://www.w3.org/2000/svg" viewBox="0 0 298.88 146.58"><defs><style>.cls-1{fill:#fff;}</style></defs><g id="logo"><path class="cls-1" d="M13.58,146.58c-7.24,0-13.58-.45-13.58-.45v-31.7S6.34,114,13.58,114c12,0,18.11,6.56,18.11,16.3S25.63,146.58,13.58,146.58Zm0-10c3.4,0,5.43-2,5.43-6.34s-2-6.34-5.43-6.34H11.77v12.68Z"/><path class="cls-1" d="M53.88,146.13l-5.43-10.42H48v10.42H36.23v-31.7s6.34-.45,13.13-.45c10,0,14.49,4.53,14.49,11.09s-4.08,8.83-4.08,8.83l7.7,12.23Zm-4.52-18.57a2.5,2.5,0,1,0,0-5H48v5Z"/><path class="cls-1" d="M81.06,137.07H94.64v9.06H69.29v-31.7H93.73v9.06H81.06v2.26H92.83v9.06H81.06Z"/><path class="cls-1" d="M130.41,146.13H117.28l-.9-4.53h-5.89l-.9,4.53H96.46l9.28-31.7h15.39ZM115,134.35l-1.58-8.15-1.59,8.15Z"/><path class="cls-1" d="M150.8,146.13l-5.44-17.66v17.66H133.59v-31.7h16.75l5.21,17.21,5.21-17.21h16.75v31.7H165.74V128.47l-5.44,17.66Z"/><path class="cls-1" d="M221.67,131.86l2.49-17.43h12.22l-6.79,31.7H216.46l-3.4-16.08-3.39,16.08H196.54l-6.79-31.7H202l2.49,17.43,3.4-17.43h10.41Z"/><path class="cls-1" d="M269.44,146.13H256.31l-.91-4.53h-5.88l-.91,4.53H235.48l9.29-31.7h15.39C260.2,114.61,269.44,146.13,269.44,146.13Zm-15.39-11.78-1.59-8.15-1.58,8.15Z"/><path class="cls-1" d="M282.12,123.49l.14-.38a13,13,0,0,1,12.23-8.68h4.39L288,133.9v12.23H276.24V133.9l-10.87-19.47h4.39A13,13,0,0,1,282,123.11Z"/><polygon class="cls-1" points="286.87 99.16 283.59 98.69 282.13 95.75 282.13 95.72 282.13 95.73 282.12 95.72 282.12 95.75 280.66 98.69 277.38 99.16 279.75 101.47 279.19 104.74 282.13 103.2 285.06 104.74 284.5 101.47 286.87 99.16"/><path class="cls-1" d="M281.2,115.2a14.93,14.93,0,0,0-5.65-5.38,12.53,12.53,0,0,0-7.18-1.35v-3.16a15,15,0,0,1,8.06,3.19A15.74,15.74,0,0,1,281.2,115.2Z"/><path class="cls-1" d="M283.05,115.2a14.61,14.61,0,0,1,4.92-6.45,19.37,19.37,0,0,1,7.73-3.43l.36,3.14a16.89,16.89,0,0,0-7.25,1.63A13.82,13.82,0,0,0,283.05,115.2Z"/><path class="cls-1" d="M21.73,52.22l-20.89,9a.48.48,0,0,1-.57-.14A.8.8,0,0,1,0,60.52v-4a.85.85,0,0,1,.24-.61,2.5,2.5,0,0,1,.53-.39l6.47-2.73V20.08H1.41a1,1,0,0,1-.6-.18.56.56,0,0,1-.25-.52V15.16c0-.48.26-.71.77-.71H7.24V1A1,1,0,0,1,7.45.39.62.62,0,0,1,7.94.1h7.39a.7.7,0,0,1,.52.29.91.91,0,0,1,.26.63V14.45h4.71c.6,0,.91.33.91,1V19a1.06,1.06,0,0,1-.28.78.91.91,0,0,1-.63.28H16.11V48.92l5.27-2.32a.64.64,0,0,1,.63.06.69.69,0,0,1,.28.57v3.94A1.16,1.16,0,0,1,21.73,52.22ZM60.87,59a6,6,0,0,1-.95,1.44,4.79,4.79,0,0,1-1.33.95,3.43,3.43,0,0,1-1.56.39H45a.63.63,0,0,1-.69-.42L42.48,57c-.06-.1,0-.26.07-.49s.23-.35.42-.35H52.4V12.7H37.27l-4.78,8.23a2.82,2.82,0,0,1-.46.45,1,1,0,0,1-.67.25H23a.77.77,0,0,1-.6-.25.52.52,0,0,1-.11-.59L34,.67A1.13,1.13,0,0,1,34.88.1H43.6a.68.68,0,0,1,.57.29.41.41,0,0,1,.07.49L40.58,7.07H54.64c2.49,0,4.22.52,5.22,1.55s1.4,2.56,1.4,4.85v44A3.61,3.61,0,0,1,60.87,59ZM34.32,56.65a4.46,4.46,0,0,1-.57.44,1.41,1.41,0,0,1-.77.27H24.33a.63.63,0,0,1-.56-.39.55.55,0,0,1,0-.67L38.61,38.09a1.39,1.39,0,0,1,1.19-.56h8.87a.59.59,0,0,1,.49.28.41.41,0,0,1,.07.49ZM45.61,35a.57.57,0,0,1-.53.39H36.42a1.39,1.39,0,0,1-.76-.25,1.33,1.33,0,0,1-.57-.52L26.93,23.8c-.09-.13-.06-.29.08-.49a.62.62,0,0,1,.48-.28h8.87a1.42,1.42,0,0,1,1.19.57l8,10.76A.64.64,0,0,1,45.61,35Z"/><path class="cls-1" d="M82,32.22a.6.6,0,0,1-.29.48.9.9,0,0,1-.49.21h-3a.64.64,0,0,1-.56-.28.93.93,0,0,1-.22-.57l1.63-19.62a.86.86,0,0,1,.28-.52A.83.83,0,0,1,80,11.6h3a.62.62,0,0,1,.56.39,1.38,1.38,0,0,1,.22.67ZM94,61.51a.59.59,0,0,1-.53.31H86a.71.71,0,0,1-.64-.31,1.22,1.22,0,0,1-.2-.68V1a1,1,0,0,1,.16-.59.63.63,0,0,1,.54-.25h7.53a.68.68,0,0,1,.51.25.75.75,0,0,1,.25.59V60.83A1.48,1.48,0,0,1,94,61.51Zm6.6-31.26a.78.78,0,0,1-.6.28H97.2a.9.9,0,0,1-.49-.22.6.6,0,0,1-.29-.49l-1-17.16a1.46,1.46,0,0,1,.21-.67.65.65,0,0,1,.57-.39H99a.85.85,0,0,1,.63.32.81.81,0,0,1,.28.52l1,17.24A.87.87,0,0,1,100.61,30.25Zm38.93,31.21a.54.54,0,0,1-.28.33,1,1,0,0,1-.35.11H126.32a3.89,3.89,0,0,1-3-1.35A5,5,0,0,1,122,57V36.78h-4.22V46.91a9.36,9.36,0,0,1-.35,2.46,3.36,3.36,0,0,1-.46,1c-.22.3-.43.65-.67,1l-7.11,9.49a2.75,2.75,0,0,1-.91.71,2.17,2.17,0,0,1-.91.29h-8a.63.63,0,0,1-.56-.36.65.65,0,0,1,0-.71l10-13.43V36.78H106a3.57,3.57,0,0,1-2.25-.7,3.16,3.16,0,0,1-1.27-2.75V15.68a3.56,3.56,0,0,1,1.13-2.6,3.57,3.57,0,0,1,2.81-1.26h2.12L104.8.91c0-.1,0-.24.1-.46a.52.52,0,0,1,.46-.31h8.22a.92.92,0,0,1,.46.13,1,1,0,0,1,.39.43l3.73,11.12h4.72L126.74.57a.92.92,0,0,1,.39-.43,1,1,0,0,1,.46-.14h8.23a.64.64,0,0,1,.49.24.46.46,0,0,1,.07.53l-3.8,11.05H134a3.74,3.74,0,0,1,3,1.26A4.21,4.21,0,0,1,138.07,16v17.1A3.6,3.6,0,0,1,137,35.72a3.53,3.53,0,0,1-2.61,1.06H131V56.2h9.63a.5.5,0,0,1,.46.28c.12.18.16.33.11.41ZM129.06,17.51H111.47V31.09h17.59Z"/><path class="cls-1" d="M219.07,13.75a.82.82,0,0,1-.63.31h-9.92V27.78a5.52,5.52,0,0,1-.42,2,3.66,3.66,0,0,1-1.19,1.62L195.16,41,219.28,60.7c.19.13.21.35.08.63a.66.66,0,0,1-.57.42H207.25a3.13,3.13,0,0,1-.91-.18,2.77,2.77,0,0,1-.84-.38L188.12,46.84,169.91,61.19a2.73,2.73,0,0,1-.85.38,3.07,3.07,0,0,1-.91.18h-11a.63.63,0,0,1-.56-.42c-.15-.28-.12-.5.07-.63L181.45,41l-11.26-9.22a5.12,5.12,0,0,1-1.69-2.25,9.46,9.46,0,0,1-.35-2.74V14.06h-9.84a.87.87,0,0,1-.61-.21.6.6,0,0,1-.24-.49V9.42a1,1,0,0,1,.24-.66.76.76,0,0,1,.61-.32h24.54L180.66,1a.47.47,0,0,1,.15-.57.81.81,0,0,1,.57-.28h8.43a1.11,1.11,0,0,1,.63.24,1.27,1.27,0,0,1,.5.61l2.18,7.45h25.25a1.15,1.15,0,0,1,.67.21.65.65,0,0,1,.32.56v3.86A1,1,0,0,1,219.07,13.75Zm-19.55.31H177.15V25.88l11.33,9.28,11-9.28Z"/><path class="cls-1" d="M244.84,22.51h5.06a.69.69,0,0,1,.56.25.86.86,0,0,1,.22.59V60.84a1.24,1.24,0,0,1-.22.67.62.62,0,0,1-.56.31h-7.59a.75.75,0,0,1-.61-.31,1.12,1.12,0,0,1-.24-.67V24.13H235.2a.76.76,0,0,1-.6-.32c-.16-.22-.2-.38-.1-.53L248.71.7c.09-.09.23-.22.42-.38a.93.93,0,0,1,.63-.25h7.95a.79.79,0,0,1,.63.39.62.62,0,0,1,.14.67Zm52.25,38.75a.81.81,0,0,1-.84.49H267.42A4.1,4.1,0,0,1,264,60.14a5.18,5.18,0,0,1-1-3.17V1.06a1,1,0,0,1,.21-.64.65.65,0,0,1,.5-.28h7.74a.72.72,0,0,1,.52.28,1,1,0,0,1,.25.64V25.53H283.8l4.37-18.36a1.2,1.2,0,0,1,.35-.56.78.78,0,0,1,.56-.28h7.66a.64.64,0,0,1,.49.25.65.65,0,0,1,.14.59l-4.78,20.54A4,4,0,0,1,291,30,6.56,6.56,0,0,1,287,31.16H272.27v25h26.1a.46.46,0,0,1,.42.28q.13.29.06.42Z"/></g></svg>