<svg xmlns="http://www.w3.org/2000/svg" viewBox="0 0 53.59 51.84"><defs><style>.cls-1{fill:#fff;}</style></defs><g id="containt"><circle cx="25.55" cy="26.24" r="25.13"/><path d="M24.28,1a22,22,0,0,0-4.35.5,25.45,25.45,0,0,0-19.4,30A26.08,26.08,0,0,0,3.31,38.9a27.81,27.81,0,0,0,4.72,6A28.64,28.64,0,0,0,13.87,49a25.87,25.87,0,0,0,15.54,2.52A23.31,23.31,0,0,0,32,51l.92-.26a26,26,0,0,0,5.66-2.54A27.55,27.55,0,0,0,44,43.91c.72-.82,1.4-1.6,1.95-2.36S47,40.1,47.28,39.48L48.1,38a3.24,3.24,0,0,0,.27-.55c.06-.14.32-.76.74-1.72.22-.48.38-1.09.61-1.76.1-.34.24-.68.33-1.06s.18-.78.27-1.2a25.39,25.39,0,0,0-.28-12l-.45-1.58c-.18-.51-.4-1-.6-1.51a22.41,22.41,0,0,0-1.36-2.83c-.51-.88-1.06-1.71-1.58-2.48s-1.1-1.44-1.66-2-1.07-1.14-1.55-1.6l-1.3-1.12c-.71-.63-1.2-.9-1.19-.93a22.58,22.58,0,0,0-5.49-3c-1-.35-2-.66-2.67-.84L31,1.47A24.42,24.42,0,0,0,27.44,1,17.08,17.08,0,0,0,25.05,1c-.24.07-.21.17-.23.23s.11.22.18.27a18.79,18.79,0,0,0,2.5.14l2.05.23c.68.09,1.32.26,1.84.37l0,0a16.35,16.35,0,0,1,2.09.59l1,.33,1,.43.51.22a8.94,8.94,0,0,1,1.39.68A17.75,17.75,0,0,1,39.48,5.8l1.25.87L42,7.78a25.26,25.26,0,0,1,5.22,6.53,24.74,24.74,0,0,1,3,9.78,25.18,25.18,0,0,1-1.58,11.14,25.51,25.51,0,0,1-6.55,9.39,24.46,24.46,0,0,1-9.46,5.25,25.11,25.11,0,0,1-9.34.88c-.14.06.14.14,0,.08s-1.1-.13-2.31-.38L19.06,50c-.6-.18-1.14-.39-1.56-.52A24.71,24.71,0,0,1,24.26,1.41C25,1.25,24.93,1,24.28,1Z"/><circle class="cls-1" cx="27.97" cy="25.52" r="25.13"/><path d="M26.7,0a18.77,18.77,0,0,0-4.41.42A25.78,25.78,0,0,0,2.51,30.86a26.6,26.6,0,0,0,2.81,7.55,28.41,28.41,0,0,0,4.81,6.14,28.69,28.69,0,0,0,5.94,4.21,26.61,26.61,0,0,0,15.84,2.59,23.74,23.74,0,0,0,2.68-.55l.94-.27a25.89,25.89,0,0,0,5.75-2.64,27.74,27.74,0,0,0,5.37-4.43c.73-.83,1.41-1.63,2-2.41s1.05-1.47,1.38-2.11l.81-1.5a3.08,3.08,0,0,0,.27-.56c0-.15.3-.77.72-1.75.23-.49.38-1.11.61-1.78.1-.34.24-.69.33-1.08L53,31.06a25.69,25.69,0,0,0-.29-12.18c-.15-.53-.31-1.06-.46-1.59s-.4-1-.6-1.52a25.31,25.31,0,0,0-1.37-2.87c-.52-.89-1.07-1.72-1.6-2.5S47.57,8.94,47,8.34s-1.08-1.15-1.56-1.61L44.14,5.59c-.71-.65-1.21-.92-1.19-1A20.15,20.15,0,0,0,37.4,1.56c-1-.33-2-.63-2.71-.81A9,9,0,0,1,33.5.49,22.32,22.32,0,0,0,29.88,0a9.75,9.75,0,0,0-2.41.19c-.24.15-.2.35-.22.48a.55.55,0,0,0,.18.52,7.69,7.69,0,0,0,2.46.22l2,.2c.67.08,1.3.25,1.81.35l0,0a16.84,16.84,0,0,1,2.05.56l1,.31,1,.43a2.33,2.33,0,0,1,.52.19,8,8,0,0,1,1.37.66A16.28,16.28,0,0,1,41.7,5.39l1.23.85,1.28,1.09A24.11,24.11,0,0,1,52.27,23.4a24.84,24.84,0,0,1-1.57,11,25.11,25.11,0,0,1-6.47,9.24,24,24,0,0,1-9.32,5.13,24.76,24.76,0,0,1-9.18.81c-.14.14.14.26,0,.16s-1.07-.17-2.26-.43l-1.83-.48c-.58-.18-1.11-.39-1.52-.53A24.32,24.32,0,0,1,26.69.93C27.47.67,27.35.1,26.7,0Z"/></g></svg>