<svg xmlns="http://www.w3.org/2000/svg" viewBox="0 0 53.59 51.84"><defs><style>.cls-1{fill:#fff;}.cls-2{fill:#9e9e9f;}.cls-3{fill:#595757;}</style></defs><g id="containt"><circle cx="25.55" cy="26.24" r="25.13"/><path d="M24.28,1a22,22,0,0,0-4.35.5,25.45,25.45,0,0,0-19.4,30A26.08,26.08,0,0,0,3.31,38.9a27.81,27.81,0,0,0,4.72,6A28.64,28.64,0,0,0,13.87,49a25.87,25.87,0,0,0,15.54,2.52A23.31,23.31,0,0,0,32,51l.92-.26a26,26,0,0,0,5.66-2.54A27.55,27.55,0,0,0,44,43.91c.72-.82,1.4-1.6,1.95-2.36S47,40.1,47.28,39.48L48.1,38a3.24,3.24,0,0,0,.27-.55c.06-.14.32-.76.74-1.72.22-.48.38-1.09.61-1.76.1-.34.24-.68.33-1.06l.27-1.2a25.39,25.39,0,0,0-.28-12l-.45-1.58c-.18-.51-.4-1-.6-1.51a22.41,22.41,0,0,0-1.36-2.83c-.51-.88-1.06-1.71-1.58-2.48s-1.1-1.44-1.66-2-1.07-1.14-1.55-1.6l-1.3-1.12c-.71-.63-1.2-.9-1.19-.93a22.58,22.58,0,0,0-5.49-3c-1-.35-2-.66-2.67-.84L31,1.47A24.42,24.42,0,0,0,27.44,1,17.08,17.08,0,0,0,25.05,1c-.24.07-.21.17-.23.23s.11.22.18.27a18.79,18.79,0,0,0,2.5.14l2.05.23c.68.09,1.32.26,1.84.37l0,0a16.35,16.35,0,0,1,2.09.59l1,.33,1,.43.51.22a8.94,8.94,0,0,1,1.39.68A17.75,17.75,0,0,1,39.48,5.8l1.25.87L42,7.78a25.26,25.26,0,0,1,5.22,6.53,24.74,24.74,0,0,1,3,9.78,25.18,25.18,0,0,1-1.58,11.14,25.51,25.51,0,0,1-6.55,9.39,24.46,24.46,0,0,1-9.46,5.25,25.11,25.11,0,0,1-9.34.88c-.14.06.14.14,0,.08s-1.1-.13-2.31-.38L19.06,50c-.6-.18-1.14-.39-1.56-.52A24.71,24.71,0,0,1,24.26,1.41C25,1.25,24.93,1,24.28,1Z"/><circle class="cls-1" cx="27.97" cy="25.52" r="25.13"/><path d="M26.7,0a18.77,18.77,0,0,0-4.41.42A25.78,25.78,0,0,0,2.51,30.86a26.6,26.6,0,0,0,2.81,7.55,28.41,28.41,0,0,0,4.81,6.14,28.69,28.69,0,0,0,5.94,4.21,26.61,26.61,0,0,0,15.84,2.59,23.74,23.74,0,0,0,2.68-.55l.94-.27a25.89,25.89,0,0,0,5.75-2.64,27.74,27.74,0,0,0,5.37-4.43c.73-.83,1.41-1.63,2-2.41s1.05-1.47,1.38-2.11l.81-1.5a3.08,3.08,0,0,0,.27-.56c0-.15.3-.77.72-1.75.23-.49.38-1.11.61-1.78.1-.34.24-.69.33-1.08L53,31.06a25.69,25.69,0,0,0-.29-12.18l-.46-1.59c-.18-.51-.4-1-.6-1.52a25.31,25.31,0,0,0-1.37-2.87c-.52-.89-1.07-1.72-1.6-2.5S47.57,8.94,47,8.34s-1.08-1.15-1.56-1.61L44.14,5.59c-.71-.65-1.21-.92-1.19-1A20.15,20.15,0,0,0,37.4,1.56c-1-.33-2-.63-2.71-.81A9,9,0,0,1,33.5.49,22.32,22.32,0,0,0,29.88,0a9.75,9.75,0,0,0-2.41.19c-.24.15-.2.35-.22.48a.55.55,0,0,0,.18.52,7.69,7.69,0,0,0,2.46.22l2,.2c.67.08,1.3.25,1.81.35l0,0a16.84,16.84,0,0,1,2.05.56l1,.31,1,.43a2.33,2.33,0,0,1,.52.19,8,8,0,0,1,1.37.66A16.28,16.28,0,0,1,41.7,5.39l1.23.85,1.28,1.09A24.11,24.11,0,0,1,52.27,23.4a24.84,24.84,0,0,1-1.57,11,25.11,25.11,0,0,1-6.47,9.24,24,24,0,0,1-9.32,5.13,24.76,24.76,0,0,1-9.18.81c-.14.14.14.26,0,.16s-1.07-.17-2.26-.43l-1.83-.48c-.58-.18-1.11-.39-1.52-.53A24.32,24.32,0,0,1,26.69.93C27.47.67,27.35.1,26.7,0Z"/><path class="cls-2" d="M7.9,21a18.2,18.2,0,0,1,5.31-9.65,16.11,16.11,0,0,1,11.3-4.5C27.58,6.73,34,8.54,34.9,9.35A45.54,45.54,0,0,1,38.14,13c-5,.5-9.77,2-12.76,6.34a25.31,25.31,0,0,0-4.33,3.91,6.52,6.52,0,0,1-5,2c-1.21,0-4.21-.26-4.21-.26L9,27.83l-.81-2.31A11.52,11.52,0,0,1,7.9,21Z"/><path class="cls-3" d="M38.14,13l.19.24s5.78,1.86,6.86,2.32,3.87,2.35,4,4.85-4.65,3.9-4.65,3.9a39.16,39.16,0,0,0-3.12-2.75c-.65-.38-2.39-2.66-5.52-3.3s-8.89-.05-10.14.82l-.36.26C28.37,15,33.1,13.5,38.14,13Z"/><path d="M16.63,42c.12-.15-.09-.52-.28-.87L16,40.46l-.46-.18c-.13,0-.44-.54-.35-.58s-.19-.13-.14-.16-.09-.07-.26,0l-.33.15-.35.17c-.21.1,0,.1,0,.15h0s.08,0,.09.06.57.86.69,1.39l.1-.07a.37.37,0,0,0-.06.21,4.15,4.15,0,0,1,1.27.88A4.47,4.47,0,0,0,16.63,42Z"/><path d="M16.61,41.93c.35-.11.21-1.87.21-1.87l-.35-.4c-.12,0-.21-.73-.12-.75s-.14-.2-.08-.21-.07-.11-.25-.1l-.36,0-.39,0c-.22,0,0,.1,0,.15h0s.06.06.06.09c.16,0,.26,1,.09,1.55.12,0,.18,0,.12,0a.37.37,0,0,0-.14.16A3,3,0,0,1,15.93,42,4.26,4.26,0,0,0,16.61,41.93Z"/><path d="M8.92,27a23.1,23.1,0,0,1-.4-4.08A15.77,15.77,0,0,1,10.83,15a14.18,14.18,0,0,1,5.89-5.37,18.53,18.53,0,0,1,2.5-1c.62-.19,1-.28,1-.28a32.1,32.1,0,0,1,3.62-.88,21.83,21.83,0,0,1,2.23-.3,14.05,14.05,0,0,1,5.18.53,11.4,11.4,0,0,1,3.07,1.44,7,7,0,0,1,.89.67,1.76,1.76,0,0,1,.31.29c.28.35.8.83,1.22,1.28a4.88,4.88,0,0,1,.7.87c.31.48.76,1.38,1,1.43a.74.74,0,0,0,.37-.06.6.6,0,0,0,.34-.18c.21-.15-.48-1.32-.88-1.88h0a9.32,9.32,0,0,0-.88-1.09A22.63,22.63,0,0,0,35.51,8.9a13.63,13.63,0,0,0-5.33-2.33,21.09,21.09,0,0,0-7-.13A28,28,0,0,0,17,7.91c0,.12.12.15.05.12a8.11,8.11,0,0,0-1.75.65,15.77,15.77,0,0,0-6.63,8.14,16.14,16.14,0,0,0-.4,10.34A.43.43,0,0,0,8.92,27Z"/><path d="M19.65,42.19a14.06,14.06,0,0,0,3.53,1.3,29.69,29.69,0,0,0,7.6,1,31.19,31.19,0,0,0,7.51-.94,16.43,16.43,0,0,0,3.3-1.2,10,10,0,0,0,2.76-2.22A6.76,6.76,0,0,0,45.5,38.3,16,16,0,0,0,46,36.72a6,6,0,0,0-.16-3.29A5,5,0,0,0,45,31.91a1.94,1.94,0,0,1-.5-1.09c0-.37,0-.74,0-1a2.3,2.3,0,0,1,0-.38,17.53,17.53,0,0,0-.19-2.63c0-.51-.13-1.44-.31-1.52a1,1,0,0,0-.37,0,1,1,0,0,0-.39.07c-.22.07,0,1.14,0,1.7h0c0,.37.1.76.11,1.13a2.13,2.13,0,0,1,.08.56l.11,1.48a6.67,6.67,0,0,0,.14,1.12,3.16,3.16,0,0,0,.68,1.21,4,4,0,0,1,.91,2.19,5.93,5.93,0,0,1-2,4.9,10.89,10.89,0,0,1-4.49,2.26c0,.12.1.16,0,.12s-1.06.16-1.51.24a27.73,27.73,0,0,1-17.31-.69A.49.49,0,0,0,19.65,42.19Z"/><path d="M39.55,30.69a2.1,2.1,0,0,1-.94,0,1.23,1.23,0,0,1-.68-.48,1.7,1.7,0,0,1-.25-1,2.21,2.21,0,0,1,.85-1.72,1.31,1.31,0,0,1,.73-.2,1.9,1.9,0,0,1,.88,0,1.86,1.86,0,0,1,.53.23,1.32,1.32,0,0,1,.56,1.19,1.72,1.72,0,0,1-.5,1.25c-.24.1-.47.63-.53.59s-.36.24-.34.42a1.79,1.79,0,0,0,.09.35,2.05,2.05,0,0,0,.14.37c.11.21.53-.15.72-.31l0,0a4.31,4.31,0,0,0,.37-.37s.23-.28.5-.75a3.29,3.29,0,0,0,.4-2.07,2.78,2.78,0,0,0-1.61-2.07,3.12,3.12,0,0,0-2.44-.12c0,.11.1.15.05.11a1.41,1.41,0,0,0-.72.29,3.51,3.51,0,0,0-.87,1.81,3.39,3.39,0,0,0,.19,1.91,2.18,2.18,0,0,0,3.31,1C40,31,39.64,30.73,39.55,30.69Z"/><path d="M25.66,31.09a1.89,1.89,0,0,1-.94,0,1.28,1.28,0,0,1-.68-.49,1.73,1.73,0,0,1-.25-1,2.27,2.27,0,0,1,.85-1.72,1.23,1.23,0,0,1,.73-.2,1.82,1.82,0,0,1,.89,0,1.88,1.88,0,0,1,.52.23,1.32,1.32,0,0,1,.57,1.19,1.72,1.72,0,0,1-.5,1.25c-.25.1-.47.63-.54.58s-.36.25-.34.43a3.57,3.57,0,0,0,.1.35,1.82,1.82,0,0,0,.14.36c.1.22.53-.14.72-.3v0a4.44,4.44,0,0,0,.38-.37s.22-.28.49-.75a3.3,3.3,0,0,0,.41-2.08A2.81,2.81,0,0,0,26.6,26.6a3.18,3.18,0,0,0-2.43-.12c0,.12.09.16,0,.12a1.44,1.44,0,0,0-.73.29,3.57,3.57,0,0,0-.86,1.81,3.34,3.34,0,0,0,.19,1.9,2.16,2.16,0,0,0,3.3,1C26.1,31.43,25.76,31.14,25.66,31.09Z"/><path d="M30.35,29.85c.17.08.66-.34,1.27-.51a3.5,3.5,0,0,1,1.2-.18A3.52,3.52,0,0,1,33.2,29l.25-.09c0-.06.32,0,.58.05s.49.25.47.29.33.06.29.13a.23.23,0,0,0,.3-.07l.25-.27.24-.3c.14-.18-.12-.16-.19-.21l0,0s-.14,0-.19-.06a7.79,7.79,0,0,1-1.06-.4,8.56,8.56,0,0,0-1.8-.34c0,.12,0,.18,0,.12a.49.49,0,0,0-.28-.12,6.82,6.82,0,0,0-2.27,1.72A2.94,2.94,0,0,0,30.35,29.85Z"/><path d="M15.29,37.58a1.64,1.64,0,0,1-.65.9A3.2,3.2,0,0,1,12,38.21,4.45,4.45,0,0,1,10,36.36a3,3,0,0,1-.31-.81,2.23,2.23,0,0,1-.06-.32A3.62,3.62,0,0,1,9.45,34a2.83,2.83,0,0,1,.14-.75,2.11,2.11,0,0,1,1.16-1.31,2.34,2.34,0,0,1,1.68-.16A1.58,1.58,0,0,0,13,32c.2,0,.37.1.36.13.16.1.44.3.6.22a1.76,1.76,0,0,0,.3-.21,1.39,1.39,0,0,0,.28-.27c.16-.18-.4-.52-.67-.65v0a2.92,2.92,0,0,0-.58-.23s-.41-.12-1.06-.15a3.83,3.83,0,0,0-2.4.65A4.05,4.05,0,0,0,8.25,34a5,5,0,0,0,.22,2.71c.11,0,.16-.09.12-.05a2,2,0,0,0,.25.78,6,6,0,0,0,3.75,2.16,3.71,3.71,0,0,0,2.2-.15,1.93,1.93,0,0,0,1.17-2C15.79,37.36,15.37,37.52,15.29,37.58Z"/><path d="M40.12,33.09s.05,0,.06,0,0,0,0-.05h0l0,0h0A.27.27,0,0,1,40,33L39.94,33h0l-.1-.15h0l-.13,0a1.53,1.53,0,0,1-.76-.21,3.8,3.8,0,0,1-.77-.63l-.4-.39a5.22,5.22,0,0,0-1-.35s-.47-.16-.92-.19a4.76,4.76,0,0,0-.92.05c-.27-.1-.46.42-.48.37s-.16.31,0,.41l.32.18.34.18c.2.11.07,0,.1,0l0,0s0-.07,0-.08.18-.28.66-.17a2.46,2.46,0,0,1,1.17,1c.08-.08.12-.14.09-.09s0,.23.09.3a4.13,4.13,0,0,0,1.66.6,2.46,2.46,0,0,0,.93-.07,1.69,1.69,0,0,0,.43-.2.59.59,0,0,0,.29-.38.52.52,0,0,0,0-.25.43.43,0,0,0-.39-.24.38.38,0,0,0-.24.1c0,.06-.2.07-.14.44.11.17.23.12.26.08a.4.4,0,0,0,.1-.18C40.16,33,40.12,33.12,40.12,33.09Z"/><path d="M39.79,34a2.69,2.69,0,0,0-.13.36.88.88,0,0,1-.47.46,2,2,0,0,1-.88.07,3.4,3.4,0,0,1-.5-.07c-.29.06-.88.15-.88.15a1.36,1.36,0,0,1-.74-.13c-.33-.12-.6-.32-.57-.37s-.38-.12-.35-.18a.27.27,0,0,0-.34,0l-.26.25c-.17.17-.22.24-.27.28s.14.21.22.27l0,0c.06,0,.16,0,.22.1s.57.29,1.24.53,1.47.44,2,.6c0-.11,0-.18,0-.12s.2.16.3.18a2.84,2.84,0,0,0,1.75-.9,1.67,1.67,0,0,0,.2-1.92A2.17,2.17,0,0,0,39.79,34Z"/><path d="M25.07,34.43s0,.19.18.37a1.33,1.33,0,0,0,.81.41,2.15,2.15,0,0,0,1.15-.15,2.92,2.92,0,0,0,1-.76c.51-.59.81-1.1,1.11-1.36a2.73,2.73,0,0,1,.52-.42,3.49,3.49,0,0,1,.83-.72,1.28,1.28,0,0,1,1-.13,1.25,1.25,0,0,1,.82.4c0,.2.47.24.43.3a.32.32,0,0,0,.37.13,2.53,2.53,0,0,0,.33-.16,1.91,1.91,0,0,0,.33-.2c.19-.13-.15-.35-.27-.47l0,0c-.08-.09-.21-.14-.29-.22a5.18,5.18,0,0,0-1.92-.69,4.6,4.6,0,0,0-3,1c.08.09.14.13.09.09a1,1,0,0,0-.42.21c-.49.73-.67,1.42-1.07,1.86s-1.15.54-1.35.14A1.72,1.72,0,0,0,25.07,34.43Z"/><path d="M26,35.06c-.11.16.61,1.08,1.66,1.52a4.87,4.87,0,0,0,1.48.39,4.8,4.8,0,0,0,.71,0,3.83,3.83,0,0,0,1-.52c0-.06.43-.24.8-.51s.68-.62.72-.6c.25,0,.19-.55.23-.52a.28.28,0,0,0-.12-.38l-.35-.09-.39-.08c-.22,0-.08.11-.11.17h0s0,.11,0,.14-.09.44-.61.71a2.24,2.24,0,0,1-1.66.2c0,.11,0,.18,0,.12a.64.64,0,0,0-.23-.18,2.83,2.83,0,0,1-2.62-.85A2.35,2.35,0,0,0,26,35.06Z"/><path d="M15.53,25.3a2.58,2.58,0,0,0,1.4.39,5.66,5.66,0,0,0,3.07-1A19.17,19.17,0,0,0,23.24,22l3.36-3.21c1.14-1.08,2.25-2.24,3.31-3.1a6.85,6.85,0,0,1,3.3-1.44,14.87,14.87,0,0,1,2.68-.19c.65,0,1,0,1,0a19.93,19.93,0,0,1,3.71.4,17.12,17.12,0,0,1,2.19.58,14.51,14.51,0,0,1,4.62,2.5A4.57,4.57,0,0,1,48.53,19a2.47,2.47,0,0,1,.21,1.4,2.54,2.54,0,0,1-.58,1.28,10.33,10.33,0,0,1-1.24,1.13,4.07,4.07,0,0,1-1,.58c-.52.23-1.52.63-1.57.83a.74.74,0,0,0,0,.37.76.76,0,0,0,.17.35c.14.2,1.29-.36,1.93-.67v0a8,8,0,0,0,1.23-.76,5.94,5.94,0,0,0,1.64-2.1,3.42,3.42,0,0,0-.12-2.92,6.81,6.81,0,0,0-2.37-2.4,21.06,21.06,0,0,0-6.56-2.84,21.45,21.45,0,0,0-6.4-.56c0,.12.07.18,0,.12a7.94,7.94,0,0,0-1.92.18,7.8,7.8,0,0,0-2.54,1.28,16.68,16.68,0,0,0-2,1.83l-3.61,3.75a48,48,0,0,1-3.69,3.6,7.3,7.3,0,0,1-2.14,1.23,3.1,3.1,0,0,1-2.28,0C15.55,24.73,15.37,25.13,15.53,25.3Z"/><path d="M31.21,18.52c.11.18,1.92.16,3.64.45a14,14,0,0,1,2.27.55,10,10,0,0,1,1,.39,9.82,9.82,0,0,1,1,.3l.59.23a3.61,3.61,0,0,1,1.23.85,3.56,3.56,0,0,1,.87,1.1c0,.29.55.62.5.67s.25.38.43.33a2.68,2.68,0,0,0,.34-.13,1.64,1.64,0,0,0,.34-.18c.2-.11-.12-.4-.23-.57h0c-.07-.12-.19-.22-.26-.33s-.67-.92-1.7-1.81a13.6,13.6,0,0,0-3.39-2.16c-.05.11-.05.18,0,.12a1.5,1.5,0,0,0-.48-.32,29.68,29.68,0,0,0-6.16-.16A1.27,1.27,0,0,0,31.21,18.52Z"/><path d="M25.33,15.76c.15.35,3-.09,3-.08l.66-.42A2.44,2.44,0,0,1,30.24,15c.14.15.33-.18.34-.11a.23.23,0,0,0,.17-.27c0-.11,0-.26-.06-.36s-.06-.32-.07-.38c-.05-.23-.16,0-.24,0v0c-.05,0-.1.07-.15.08a5.6,5.6,0,0,1-2.47.33c0,.11,0,.18,0,.12s-.18-.11-.24-.12a7.57,7.57,0,0,1-2.33.83A3.09,3.09,0,0,0,25.33,15.76Z"/><path d="M11.17,25.9a12.93,12.93,0,0,0,3.5-2.1,35.59,35.59,0,0,0,3-2.51c.42-.51,1.17-1.58,1.17-1.58a10.49,10.49,0,0,1,1.07-1.3A10.14,10.14,0,0,1,21,17.23c.31-.12.5-.81.55-.78.12-.14.28-.44.16-.58a2.83,2.83,0,0,0-.28-.23,2,2,0,0,0-.31-.23c-.2-.12-.29.28-.42.44l0,0c-.08.1-.12.25-.21.35A8.89,8.89,0,0,1,19,18.1a22.4,22.4,0,0,1-3,2.71c.07.09.14.12.09.09a1.57,1.57,0,0,0-.52.25,22.92,22.92,0,0,1-4.77,4.18A1.17,1.17,0,0,0,11.17,25.9Z"/><path d="M16.66,33.07C16.84,33,16.89,32,17,31s.22-2,.22-2l-.17-1a4,4,0,0,1,.28-1.7c.19-.11,0-.5.06-.49a.28.28,0,0,0-.16-.34l-.35-.1-.38-.09c-.23,0-.11.21-.13.32h0c0,.07,0,.16,0,.23a18.78,18.78,0,0,1-.66,3.55h.12s-.16.2-.18.29c.13,1.2.36,2.36.37,3.52A2.11,2.11,0,0,0,16.66,33.07Z"/><path d="M14.51,32.58a.52.52,0,0,0,.09.6l.24-.2c.07-.1.2,0,.15.07s.11-.08.07,0,0,0,.15-.18l.2-.31.21-.33c.12-.19,0-.05,0-.06l0,0s0,0-.05,0-.25,0-.21-.27l-.07.1a.58.58,0,0,0,.06-.15c-.21.13-.43.28-.49.17Z"/><path d="M9.78,31.84c.18-.06.21-.61.22-1.14v-1l-.31-.51c-.13,0-.12-.89,0-.89s-.11-.26,0-.26-.05-.15-.23-.16l-.36,0H8.65c-.23,0-.06.12-.06.17h0s.06.08,0,.12c.15,0,.1,1.27-.08,1.9h.12a.38.38,0,0,0-.15.18,5.62,5.62,0,0,1,.61,1.78A4,4,0,0,0,9.78,31.84Z"/><path d="M11.49,27.62c.12.36,2.89.2,2.89.21.23-.11.67-.35.67-.35a2.12,2.12,0,0,1,1.18-.13c.12.15.33-.15.34-.09s.18-.07.18-.24,0-.27,0-.37,0-.32,0-.39c0-.22-.16,0-.23,0v0c-.05,0-.1.07-.14.07a5.21,5.21,0,0,1-2.39.09c0,.12,0,.18,0,.12a.47.47,0,0,0-.22-.14,6.71,6.71,0,0,1-2.28.6A2.86,2.86,0,0,0,11.49,27.62Z"/><path d="M10.51,29.33c.1.36,3.19.35,3.2.35.25-.09.76-.31.76-.31a2.71,2.71,0,0,1,1.32-.07c.12.16.37-.13.38-.06a.23.23,0,0,0,.21-.24c0-.12,0-.27,0-.37s0-.32,0-.39c0-.23-.17,0-.25,0v0c-.06,0-.11.06-.17.06a6.42,6.42,0,0,1-2.65,0c0,.12,0,.19,0,.13s-.16-.14-.23-.16a8.05,8.05,0,0,1-2.58.48A3.09,3.09,0,0,0,10.51,29.33Z"/><path d="M9.94,30.94c.09.37,3.39.48,3.4.49l.82-.28a3,3,0,0,1,1.42,0c.12.16.4-.12.41-.05a.25.25,0,0,0,.24-.23c0-.12,0-.27,0-.37s0-.32,0-.39c0-.22-.18-.05-.26-.05v0c-.06,0-.12.05-.18.05A7,7,0,0,1,13,29.92c0,.12,0,.19,0,.13s-.16-.15-.24-.17a9.11,9.11,0,0,1-2.77.37A2.3,2.3,0,0,0,9.94,30.94Z"/><path d="M41.63,25.75s.22.07.45-.06a1.12,1.12,0,0,0,.51-.8,1.43,1.43,0,0,0-.39-1.18,2.82,2.82,0,0,0-.92-.65,4.07,4.07,0,0,0-1.9-.39,3.85,3.85,0,0,0-.94.15,1.36,1.36,0,0,0-.58.51,1.09,1.09,0,0,0-.11.86,1.1,1.1,0,0,0,.44.63c.05,0,.22.14.46.23a4.25,4.25,0,0,0,.77.17,3.33,3.33,0,0,1,1,.23c.15.19.58,0,.58,0a.31.31,0,0,0,.37-.17,5.89,5.89,0,0,0,.12-.75c0-.22-.23-.09-.36-.11v0c-.08,0-.18,0-.26,0a4.8,4.8,0,0,1-1.51-.16.8.8,0,0,1-.38-.16c-.06,0,0-.12-.08-.11s-.15-.05-.1,0a.49.49,0,0,1,.11.14s0,0,0,0a1.78,1.78,0,0,1,.4,0c0-.12,0-.18,0-.12a.91.91,0,0,0,.28.14,2.73,2.73,0,0,1,1.62.12.78.78,0,0,1,.47.43c.06.15-.09.38-.16.35A2.24,2.24,0,0,0,41.63,25.75Z"/><path d="M27.34,24.18a7.62,7.62,0,0,0-1.68.15,10.9,10.9,0,0,1-1.41,0l-.34,0h0s0,0,0,0,0,0,.05,0a4.9,4.9,0,0,1,.66-.52,3.66,3.66,0,0,1,.46-.26,2.44,2.44,0,0,1,1.19-.26,3.5,3.5,0,0,1,.79.08c.2.05.27.11.26.13s.07.1.14.14.11.1.08.1,0,.19.06.26l.28.16a2,2,0,0,0,.38.17c.12.05.23-.08.28-.27a1.5,1.5,0,0,0,0-.56h0a1.21,1.21,0,0,0-.27-.53,2.15,2.15,0,0,0-.81-.46,6,6,0,0,0-1.58-.11A7.13,7.13,0,0,0,24,22.7a5.74,5.74,0,0,0-.84.36,2.68,2.68,0,0,0-1,.8c.12.05.2,0,.13,0a1,1,0,0,0-.34.65,1.16,1.16,0,0,0,.21.56,1.29,1.29,0,0,0,.78.47,4.83,4.83,0,0,0,1,0c.42,0,.83-.1,1.24-.18a19.19,19.19,0,0,0,2.37-.62A1.44,1.44,0,0,0,27.34,24.18Z"/><path d="M49.53,21.27c.17-.05.22-.65.14-1.24a6,6,0,0,0-.25-1.14c-.15-.15-.49-.42-.49-.42s-.52-.81-.45-.85-.25-.18-.19-.21-.13-.1-.29,0l-.3.19-.33.22c-.19.12,0,.11,0,.16h0s.09,0,.1.07.68,1,.61,1.59l.12,0a.33.33,0,0,0-.11.19,2.62,2.62,0,0,1,.74,1.56A3.58,3.58,0,0,0,49.53,21.27Z"/><path d="M49,20.86c.17-.08.13-.78,0-1.45a7.77,7.77,0,0,0-.47-1.29,6.62,6.62,0,0,0-.59-.45,2.42,2.42,0,0,1-.65-.93c.07-.18-.29-.19-.24-.23a.22.22,0,0,0-.3,0l-.28.23-.3.25c-.17.15,0,.13.08.18l0,0s.1,0,.12.07c.14-.12.94,1.08,1,1.79l.11-.05a.38.38,0,0,0-.07.22,3.46,3.46,0,0,1,1,1.78A3,3,0,0,0,49,20.86Z"/><path d="M48.67,21c.25-.28-1.51-3.19-1.51-3.2-.22-.19-.7-.55-.7-.55a3.43,3.43,0,0,1-.81-1.22c.07-.19-.32-.28-.27-.32a.25.25,0,0,0-.33-.08,3.21,3.21,0,0,0-.31.19l-.32.21c-.19.13,0,.18.1.26h0c0,.06.12.08.15.13A7.73,7.73,0,0,1,46.11,19c.1-.06.15-.11.11-.07a.59.59,0,0,0,0,.3,9.93,9.93,0,0,1,1.88,2.18A2.88,2.88,0,0,0,48.67,21Z"/><path d="M47.8,22.82c.25-.31-2.13-4.55-2.13-4.56l-.86-.9a6.39,6.39,0,0,1-1.07-1.79c0-.24-.4-.45-.35-.49A.33.33,0,0,0,43,14.9a3.24,3.24,0,0,0-.32.17l-.33.2c-.19.13.09.25.15.36l0,0c.05.07.14.12.18.2a15.34,15.34,0,0,1,2,3.66.46.46,0,1,1,.11-.06.81.81,0,0,0,0,.39,20.28,20.28,0,0,1,2.4,3.32A1.76,1.76,0,0,0,47.8,22.82Z"/><path d="M46.54,22.88c.23-.32-2.32-4.74-2.32-4.74-.29-.32-.9-.94-.91-.94a7.46,7.46,0,0,1-1.14-1.86c0-.25-.42-.48-.37-.52s-.22-.26-.39-.19a3.24,3.24,0,0,0-.32.17l-.33.21c-.19.13.1.26.17.38h0c.05.08.14.13.19.21a17.31,17.31,0,0,1,2.15,3.81c.11-.05.15-.1.11-.06a.88.88,0,0,0,0,.4A22,22,0,0,1,46,23.23,2.09,2.09,0,0,0,46.54,22.88Z"/><path d="M45.36,23.7c.22-.34-2.83-5.42-2.82-5.42l-1-1.11A9.46,9.46,0,0,1,40.16,15c0-.27-.48-.55-.43-.59s-.26-.31-.43-.24l-.31.18a2.45,2.45,0,0,0-.33.21c-.19.14.12.3.2.43l0,0c0,.08.16.15.21.24a22.88,22.88,0,0,1,2.58,4.38c.1-.06.15-.11.1-.07a1.18,1.18,0,0,0,.09.46,29.4,29.4,0,0,1,3,4A1.59,1.59,0,0,0,45.36,23.7Z"/><path d="M44.37,23.26a12.38,12.38,0,0,0-1.54-2.75L41.22,18l-1-1.09a8.91,8.91,0,0,1-1.36-2.15c0-.28-.48-.56-.42-.6s-.26-.32-.42-.25-.24.12-.33.16a3.5,3.5,0,0,0-.33.21c-.18.13.12.3.2.44h0c.06.1.16.16.22.25a31.56,31.56,0,0,1,2.65,4.43c.11-.06.15-.11.11-.07a1.1,1.1,0,0,0,.11.46,44.21,44.21,0,0,1,3.25,3.88A1.59,1.59,0,0,0,44.37,23.26Z"/><path d="M40.76,19.93c.1-.16-.43-1-.94-1.81l-1-1.64L38,15.84a3.75,3.75,0,0,1-.86-1.4c.07-.2-.33-.35-.28-.38a.26.26,0,0,0-.34-.13l-.32.16c-.22.11-.28.16-.34.19s0,.21.1.3l0,0c0,.06.12.09.15.16A13,13,0,0,1,37.8,17.7c.1-.06.15-.11.1-.07a.57.57,0,0,0,0,.33,19.14,19.14,0,0,1,2.29,2.4A2.18,2.18,0,0,0,40.76,19.93Z"/><path d="M38.66,19.62c.1-.16-.39-.9-.85-1.64s-.9-1.46-.9-1.46l-.7-.57a3,3,0,0,1-.74-1.28c.09-.19-.3-.32-.24-.35a.25.25,0,0,0-.32-.13l-.33.15-.35.18c-.2.11,0,.19.08.28h0c0,.06.11.09.14.15a12.16,12.16,0,0,1,1.45,2.72l.11-.07a.55.55,0,0,0,0,.31,20.7,20.7,0,0,1,2.15,2.14A2.93,2.93,0,0,0,38.66,19.62Z"/><path d="M35.8,18.69c.25-.28-1.46-2.73-1.46-2.74l-.68-.42c-.13,0-.85-1-.78-1s-.31-.22-.26-.26a.22.22,0,0,0-.31,0l-.3.21-.31.24c-.18.14.05.16.1.22l0,0s.11,0,.14.1a5.79,5.79,0,0,1,1.43,2.13l.1-.08a.49.49,0,0,0,0,.27,8.05,8.05,0,0,1,1.81,1.78A2.46,2.46,0,0,0,35.8,18.69Z"/><path d="M33.57,18.34c.26-.27-1-2.1-1-2.1L32,16c-.12,0-.66-.69-.58-.74s-.26-.15-.21-.19-.14-.09-.28,0-.22.15-.3.21l-.31.24c-.18.14,0,.12.06.17l0,0s.09,0,.11.06.87,1,1.05,1.6c.1-.07.15-.12.1-.08a.35.35,0,0,0,0,.23A4.46,4.46,0,0,1,33,18.75,4.37,4.37,0,0,0,33.57,18.34Z"/><path d="M31.67,18.13c.09-.16-.16-.49-.4-.81l-.47-.62-.48-.11c-.11.07-.5-.48-.41-.53s-.21-.1-.16-.14-.1-.06-.26,0l-.31.18-.33.21c-.19.12,0,.11,0,.15h0s.09,0,.1.05.68.78.86,1.3l.09-.09a.49.49,0,0,0,0,.21,4.26,4.26,0,0,1,1.38.7A4.44,4.44,0,0,0,31.67,18.13Z"/><path d="M29.88,18.66c.26-.26-.46-1.24-.46-1.25l-.42,0c-.11.07-.42-.32-.35-.38s-.19,0-.14-.08-.1,0-.24.08l-.28.23-.29.25c-.18.15,0,.09,0,.11l0,0s.08,0,.09,0,.54.46.58.87l.1-.08a.36.36,0,0,0-.07.17c.39.12.79.22,1,.52A6.51,6.51,0,0,0,29.88,18.66Z"/><path d="M28.31,19c.32-.19.16-.64.16-.65l-.31,0c-.12,0-.2-.12-.12-.17s-.13,0-.08,0-.06,0-.22.08l-.32.17-.34.18c-.2.11,0,.05,0,.06l0,0s.06,0,.06,0,.24.19.1.42l.11-.06a.85.85,0,0,0-.13.1c.26,0,.54,0,.55.16Z"/><path d="M27.82,19.29c.17-.3-.12-.75-.1-.76l-.32,0c-.12.05-.24-.21-.14-.24s-.14,0-.08-.06-.07,0-.24,0l-.34.1-.38.12c-.21.07,0,.07,0,.09h0s.06,0,.07,0,.31.45.29.81c.1-.07.15-.11.11-.07a.34.34,0,0,0-.09.15c.35.11.69.1.85.3C27.5,19.72,27.76,19.37,27.82,19.29Z"/><path d="M48.14,21.16c.23-.31-1.71-3.35-1.71-3.35l-.75-.58A3.78,3.78,0,0,1,44.8,16c.06-.2-.35-.31-.3-.34a.26.26,0,0,0-.34-.1l-.32.18-.32.21c-.19.13.06.19.11.27l0,0c0,.05.12.07.15.13A8.72,8.72,0,0,1,45.42,19c.1-.06.15-.11.11-.07a.59.59,0,0,0,0,.32,11.44,11.44,0,0,1,2.05,2.31A2.36,2.36,0,0,0,48.14,21.16Z"/></g></svg>